<mxfile host="app.diagrams.net" modified="2024-06-06T11:19:55.929Z" agent="Mozilla/5.0 (Windows NT 10.0; Win64; x64) AppleWebKit/537.36 (KHTML, like Gecko) Chrome/121.0.0.0 Safari/537.36" etag="FTiCiAO2WQiisZC7JXgB" version="24.4.15" type="device" pages="9">
  <diagram name="Página-1" id="ZiPFj5SrXCE3NFDfiWm8">
    <mxGraphModel dx="1434" dy="782" grid="1" gridSize="10" guides="1" tooltips="1" connect="1" arrows="1" fold="1" page="1" pageScale="1" pageWidth="827" pageHeight="1169" math="0" shadow="0">
      <root>
        <mxCell id="0" />
        <mxCell id="1" parent="0" />
        <mxCell id="DqxcN8GwO106yfGj2cxF-53" value="" style="edgeStyle=orthogonalEdgeStyle;rounded=0;orthogonalLoop=1;jettySize=auto;html=1;" parent="1" source="DqxcN8GwO106yfGj2cxF-1" target="DqxcN8GwO106yfGj2cxF-51" edge="1">
          <mxGeometry relative="1" as="geometry" />
        </mxCell>
        <mxCell id="DqxcN8GwO106yfGj2cxF-1" value="Início" style="ellipse;whiteSpace=wrap;html=1;" parent="1" vertex="1">
          <mxGeometry x="50" y="20" width="110" height="60" as="geometry" />
        </mxCell>
        <mxCell id="DqxcN8GwO106yfGj2cxF-59" value="" style="edgeStyle=orthogonalEdgeStyle;rounded=0;orthogonalLoop=1;jettySize=auto;html=1;" parent="1" source="DqxcN8GwO106yfGj2cxF-7" target="DqxcN8GwO106yfGj2cxF-58" edge="1">
          <mxGeometry relative="1" as="geometry" />
        </mxCell>
        <mxCell id="DqxcN8GwO106yfGj2cxF-7" value="cadastrar cliente" style="rounded=0;whiteSpace=wrap;html=1;" parent="1" vertex="1">
          <mxGeometry x="50" y="230" width="115" height="50" as="geometry" />
        </mxCell>
        <mxCell id="DqxcN8GwO106yfGj2cxF-65" value="" style="edgeStyle=orthogonalEdgeStyle;rounded=0;orthogonalLoop=1;jettySize=auto;html=1;" parent="1" source="DqxcN8GwO106yfGj2cxF-20" target="DqxcN8GwO106yfGj2cxF-63" edge="1">
          <mxGeometry relative="1" as="geometry" />
        </mxCell>
        <mxCell id="DqxcN8GwO106yfGj2cxF-20" value="buscar cliente" style="rounded=0;whiteSpace=wrap;html=1;" parent="1" vertex="1">
          <mxGeometry x="220" y="125" width="112.5" height="50" as="geometry" />
        </mxCell>
        <mxCell id="DqxcN8GwO106yfGj2cxF-47" value="cadastro realizado" style="rounded=0;whiteSpace=wrap;html=1;" parent="1" vertex="1">
          <mxGeometry x="51.88" y="430" width="111.25" height="50" as="geometry" />
        </mxCell>
        <mxCell id="DqxcN8GwO106yfGj2cxF-55" value="sim" style="edgeStyle=orthogonalEdgeStyle;rounded=0;orthogonalLoop=1;jettySize=auto;html=1;" parent="1" source="DqxcN8GwO106yfGj2cxF-51" target="DqxcN8GwO106yfGj2cxF-20" edge="1">
          <mxGeometry relative="1" as="geometry" />
        </mxCell>
        <mxCell id="DqxcN8GwO106yfGj2cxF-57" value="não" style="edgeStyle=orthogonalEdgeStyle;rounded=0;orthogonalLoop=1;jettySize=auto;html=1;" parent="1" source="DqxcN8GwO106yfGj2cxF-51" edge="1">
          <mxGeometry relative="1" as="geometry">
            <mxPoint x="105.5" y="230" as="targetPoint" />
          </mxGeometry>
        </mxCell>
        <mxCell id="DqxcN8GwO106yfGj2cxF-51" value="cliente cadastrado" style="rhombus;whiteSpace=wrap;html=1;" parent="1" vertex="1">
          <mxGeometry x="65" y="110" width="80" height="80" as="geometry" />
        </mxCell>
        <mxCell id="DqxcN8GwO106yfGj2cxF-61" value="não" style="edgeStyle=orthogonalEdgeStyle;rounded=0;orthogonalLoop=1;jettySize=auto;html=1;" parent="1" source="DqxcN8GwO106yfGj2cxF-58" target="DqxcN8GwO106yfGj2cxF-60" edge="1">
          <mxGeometry relative="1" as="geometry" />
        </mxCell>
        <mxCell id="DqxcN8GwO106yfGj2cxF-64" value="sim" style="edgeStyle=orthogonalEdgeStyle;rounded=0;orthogonalLoop=1;jettySize=auto;html=1;" parent="1" source="DqxcN8GwO106yfGj2cxF-58" target="DqxcN8GwO106yfGj2cxF-47" edge="1">
          <mxGeometry relative="1" as="geometry" />
        </mxCell>
        <mxCell id="DqxcN8GwO106yfGj2cxF-58" value="dados válidos?" style="rhombus;whiteSpace=wrap;html=1;" parent="1" vertex="1">
          <mxGeometry x="67.5" y="320" width="80" height="80" as="geometry" />
        </mxCell>
        <mxCell id="DqxcN8GwO106yfGj2cxF-62" style="edgeStyle=orthogonalEdgeStyle;rounded=0;orthogonalLoop=1;jettySize=auto;html=1;entryX=1;entryY=0.5;entryDx=0;entryDy=0;" parent="1" source="DqxcN8GwO106yfGj2cxF-60" target="DqxcN8GwO106yfGj2cxF-7" edge="1">
          <mxGeometry relative="1" as="geometry">
            <mxPoint x="245" y="250" as="targetPoint" />
            <Array as="points">
              <mxPoint x="246" y="255" />
            </Array>
          </mxGeometry>
        </mxCell>
        <mxCell id="DqxcN8GwO106yfGj2cxF-60" value="mostrar erro&amp;nbsp;" style="rounded=0;whiteSpace=wrap;html=1;" parent="1" vertex="1">
          <mxGeometry x="190" y="335" width="110" height="50" as="geometry" />
        </mxCell>
        <mxCell id="DqxcN8GwO106yfGj2cxF-67" value="não" style="edgeStyle=orthogonalEdgeStyle;rounded=0;orthogonalLoop=1;jettySize=auto;html=1;entryX=0.5;entryY=0;entryDx=0;entryDy=0;" parent="1" source="DqxcN8GwO106yfGj2cxF-63" target="DqxcN8GwO106yfGj2cxF-20" edge="1">
          <mxGeometry relative="1" as="geometry">
            <Array as="points">
              <mxPoint x="414" y="90" />
              <mxPoint x="276" y="90" />
            </Array>
          </mxGeometry>
        </mxCell>
        <mxCell id="DqxcN8GwO106yfGj2cxF-70" value="sim" style="edgeStyle=orthogonalEdgeStyle;rounded=0;orthogonalLoop=1;jettySize=auto;html=1;" parent="1" source="DqxcN8GwO106yfGj2cxF-63" target="DqxcN8GwO106yfGj2cxF-69" edge="1">
          <mxGeometry relative="1" as="geometry" />
        </mxCell>
        <mxCell id="DqxcN8GwO106yfGj2cxF-63" value="cliente encontrado" style="rhombus;whiteSpace=wrap;html=1;" parent="1" vertex="1">
          <mxGeometry x="373.5" y="110" width="80" height="80" as="geometry" />
        </mxCell>
        <mxCell id="DqxcN8GwO106yfGj2cxF-68" style="edgeStyle=orthogonalEdgeStyle;rounded=0;orthogonalLoop=1;jettySize=auto;html=1;entryX=0;entryY=0.5;entryDx=0;entryDy=0;" parent="1" source="DqxcN8GwO106yfGj2cxF-47" target="DqxcN8GwO106yfGj2cxF-51" edge="1">
          <mxGeometry relative="1" as="geometry">
            <mxPoint x="60" y="150" as="targetPoint" />
            <Array as="points">
              <mxPoint x="20" y="455" />
              <mxPoint x="20" y="150" />
            </Array>
          </mxGeometry>
        </mxCell>
        <mxCell id="DqxcN8GwO106yfGj2cxF-74" value="não" style="edgeStyle=orthogonalEdgeStyle;rounded=0;orthogonalLoop=1;jettySize=auto;html=1;" parent="1" source="DqxcN8GwO106yfGj2cxF-69" target="DqxcN8GwO106yfGj2cxF-73" edge="1">
          <mxGeometry relative="1" as="geometry" />
        </mxCell>
        <mxCell id="I3Eb_-N1sQP1QvbI4rdD-4" value="sim" style="edgeStyle=orthogonalEdgeStyle;rounded=0;orthogonalLoop=1;jettySize=auto;html=1;" parent="1" source="DqxcN8GwO106yfGj2cxF-69" target="I3Eb_-N1sQP1QvbI4rdD-3" edge="1">
          <mxGeometry relative="1" as="geometry">
            <Array as="points">
              <mxPoint x="540" y="200" />
              <mxPoint x="540" y="200" />
            </Array>
          </mxGeometry>
        </mxCell>
        <mxCell id="DqxcN8GwO106yfGj2cxF-69" value="apagar?" style="rhombus;whiteSpace=wrap;html=1;" parent="1" vertex="1">
          <mxGeometry x="500" y="110" width="80" height="80" as="geometry" />
        </mxCell>
        <mxCell id="DqxcN8GwO106yfGj2cxF-76" value="sim" style="edgeStyle=orthogonalEdgeStyle;rounded=0;orthogonalLoop=1;jettySize=auto;html=1;" parent="1" source="DqxcN8GwO106yfGj2cxF-73" target="DqxcN8GwO106yfGj2cxF-75" edge="1">
          <mxGeometry relative="1" as="geometry" />
        </mxCell>
        <mxCell id="DqxcN8GwO106yfGj2cxF-73" value="atualizar?" style="rhombus;whiteSpace=wrap;html=1;" parent="1" vertex="1">
          <mxGeometry x="620" y="110" width="80" height="80" as="geometry" />
        </mxCell>
        <mxCell id="I3Eb_-N1sQP1QvbI4rdD-2" value="não" style="edgeStyle=orthogonalEdgeStyle;rounded=0;orthogonalLoop=1;jettySize=auto;html=1;entryX=1;entryY=0.5;entryDx=0;entryDy=0;" parent="1" source="DqxcN8GwO106yfGj2cxF-75" target="DqxcN8GwO106yfGj2cxF-73" edge="1">
          <mxGeometry relative="1" as="geometry">
            <mxPoint x="730" y="270" as="targetPoint" />
            <Array as="points">
              <mxPoint x="730" y="255" />
              <mxPoint x="730" y="150" />
            </Array>
          </mxGeometry>
        </mxCell>
        <mxCell id="I3Eb_-N1sQP1QvbI4rdD-9" value="sim" style="edgeStyle=orthogonalEdgeStyle;rounded=0;orthogonalLoop=1;jettySize=auto;html=1;" parent="1" source="DqxcN8GwO106yfGj2cxF-75" target="I3Eb_-N1sQP1QvbI4rdD-8" edge="1">
          <mxGeometry relative="1" as="geometry">
            <Array as="points">
              <mxPoint x="660" y="310" />
              <mxPoint x="660" y="310" />
            </Array>
          </mxGeometry>
        </mxCell>
        <mxCell id="DqxcN8GwO106yfGj2cxF-75" value="dados válidos?" style="rhombus;whiteSpace=wrap;html=1;" parent="1" vertex="1">
          <mxGeometry x="620" y="215" width="80" height="80" as="geometry" />
        </mxCell>
        <mxCell id="I3Eb_-N1sQP1QvbI4rdD-5" value="não" style="edgeStyle=orthogonalEdgeStyle;rounded=0;orthogonalLoop=1;jettySize=auto;html=1;entryX=0.5;entryY=1;entryDx=0;entryDy=0;" parent="1" source="I3Eb_-N1sQP1QvbI4rdD-3" target="DqxcN8GwO106yfGj2cxF-63" edge="1">
          <mxGeometry relative="1" as="geometry" />
        </mxCell>
        <mxCell id="I3Eb_-N1sQP1QvbI4rdD-42" value="" style="edgeStyle=orthogonalEdgeStyle;rounded=0;orthogonalLoop=1;jettySize=auto;html=1;" parent="1" source="I3Eb_-N1sQP1QvbI4rdD-3" target="I3Eb_-N1sQP1QvbI4rdD-6" edge="1">
          <mxGeometry relative="1" as="geometry" />
        </mxCell>
        <mxCell id="I3Eb_-N1sQP1QvbI4rdD-43" value="" style="edgeStyle=orthogonalEdgeStyle;rounded=0;orthogonalLoop=1;jettySize=auto;html=1;" parent="1" source="I3Eb_-N1sQP1QvbI4rdD-3" target="I3Eb_-N1sQP1QvbI4rdD-6" edge="1">
          <mxGeometry relative="1" as="geometry" />
        </mxCell>
        <mxCell id="I3Eb_-N1sQP1QvbI4rdD-3" value="confirmação?" style="rhombus;whiteSpace=wrap;html=1;" parent="1" vertex="1">
          <mxGeometry x="500" y="210" width="80" height="80" as="geometry" />
        </mxCell>
        <mxCell id="I3Eb_-N1sQP1QvbI4rdD-7" style="edgeStyle=orthogonalEdgeStyle;rounded=0;orthogonalLoop=1;jettySize=auto;html=1;entryX=1;entryY=1;entryDx=0;entryDy=0;" parent="1" source="I3Eb_-N1sQP1QvbI4rdD-6" target="DqxcN8GwO106yfGj2cxF-51" edge="1">
          <mxGeometry relative="1" as="geometry">
            <Array as="points">
              <mxPoint x="370" y="335" />
              <mxPoint x="370" y="190" />
              <mxPoint x="125" y="190" />
            </Array>
          </mxGeometry>
        </mxCell>
        <mxCell id="I3Eb_-N1sQP1QvbI4rdD-6" value="apagar cliente&amp;nbsp;" style="rounded=0;whiteSpace=wrap;html=1;" parent="1" vertex="1">
          <mxGeometry x="490" y="310" width="100" height="50" as="geometry" />
        </mxCell>
        <mxCell id="I3Eb_-N1sQP1QvbI4rdD-10" style="edgeStyle=orthogonalEdgeStyle;rounded=0;orthogonalLoop=1;jettySize=auto;html=1;entryX=1;entryY=1;entryDx=0;entryDy=0;" parent="1" source="I3Eb_-N1sQP1QvbI4rdD-8" target="DqxcN8GwO106yfGj2cxF-51" edge="1">
          <mxGeometry relative="1" as="geometry">
            <Array as="points">
              <mxPoint x="360" y="370" />
              <mxPoint x="360" y="210" />
              <mxPoint x="125" y="210" />
            </Array>
          </mxGeometry>
        </mxCell>
        <mxCell id="I3Eb_-N1sQP1QvbI4rdD-12" value="" style="edgeStyle=orthogonalEdgeStyle;rounded=0;orthogonalLoop=1;jettySize=auto;html=1;" parent="1" source="I3Eb_-N1sQP1QvbI4rdD-8" target="I3Eb_-N1sQP1QvbI4rdD-11" edge="1">
          <mxGeometry relative="1" as="geometry" />
        </mxCell>
        <mxCell id="I3Eb_-N1sQP1QvbI4rdD-8" value="cadastro atualizado" style="rounded=0;whiteSpace=wrap;html=1;" parent="1" vertex="1">
          <mxGeometry x="605" y="335" width="110" height="50" as="geometry" />
        </mxCell>
        <mxCell id="I3Eb_-N1sQP1QvbI4rdD-11" value="fim" style="ellipse;whiteSpace=wrap;html=1;" parent="1" vertex="1">
          <mxGeometry x="606.25" y="430" width="107.5" height="57.5" as="geometry" />
        </mxCell>
      </root>
    </mxGraphModel>
  </diagram>
  <diagram id="lIQ1qETOgJaS3VpZxJ2W" name="Página-2">
    <mxGraphModel dx="1434" dy="782" grid="1" gridSize="10" guides="1" tooltips="1" connect="1" arrows="1" fold="1" page="1" pageScale="1" pageWidth="827" pageHeight="1169" math="0" shadow="0">
      <root>
        <mxCell id="0" />
        <mxCell id="1" parent="0" />
        <mxCell id="EA676hMaUVOyt8Dl_54U-35" value="" style="edgeStyle=orthogonalEdgeStyle;rounded=0;orthogonalLoop=1;jettySize=auto;html=1;" parent="1" source="EA676hMaUVOyt8Dl_54U-36" target="EA676hMaUVOyt8Dl_54U-39" edge="1">
          <mxGeometry relative="1" as="geometry" />
        </mxCell>
        <mxCell id="EA676hMaUVOyt8Dl_54U-36" value="início" style="ellipse;whiteSpace=wrap;html=1;" parent="1" vertex="1">
          <mxGeometry x="75" y="35" width="120" height="65" as="geometry" />
        </mxCell>
        <mxCell id="EA676hMaUVOyt8Dl_54U-37" value="não" style="edgeStyle=orthogonalEdgeStyle;rounded=0;orthogonalLoop=1;jettySize=auto;html=1;" parent="1" source="EA676hMaUVOyt8Dl_54U-39" target="EA676hMaUVOyt8Dl_54U-41" edge="1">
          <mxGeometry relative="1" as="geometry" />
        </mxCell>
        <mxCell id="EA676hMaUVOyt8Dl_54U-38" value="sim" style="edgeStyle=orthogonalEdgeStyle;rounded=0;orthogonalLoop=1;jettySize=auto;html=1;" parent="1" source="EA676hMaUVOyt8Dl_54U-39" target="EA676hMaUVOyt8Dl_54U-48" edge="1">
          <mxGeometry relative="1" as="geometry" />
        </mxCell>
        <mxCell id="EA676hMaUVOyt8Dl_54U-39" value="fornecedor cadastrado" style="rhombus;whiteSpace=wrap;html=1;" parent="1" vertex="1">
          <mxGeometry x="95" y="140" width="80" height="80" as="geometry" />
        </mxCell>
        <mxCell id="EA676hMaUVOyt8Dl_54U-40" value="" style="edgeStyle=orthogonalEdgeStyle;rounded=0;orthogonalLoop=1;jettySize=auto;html=1;" parent="1" source="EA676hMaUVOyt8Dl_54U-41" target="EA676hMaUVOyt8Dl_54U-46" edge="1">
          <mxGeometry relative="1" as="geometry" />
        </mxCell>
        <mxCell id="EA676hMaUVOyt8Dl_54U-41" value="cadastrar fornecedor" style="rounded=0;whiteSpace=wrap;html=1;" parent="1" vertex="1">
          <mxGeometry x="80" y="250" width="110" height="50" as="geometry" />
        </mxCell>
        <mxCell id="EA676hMaUVOyt8Dl_54U-42" style="edgeStyle=orthogonalEdgeStyle;rounded=0;orthogonalLoop=1;jettySize=auto;html=1;entryX=0;entryY=0.5;entryDx=0;entryDy=0;" parent="1" source="EA676hMaUVOyt8Dl_54U-43" target="EA676hMaUVOyt8Dl_54U-39" edge="1">
          <mxGeometry relative="1" as="geometry">
            <Array as="points">
              <mxPoint x="55" y="465" />
              <mxPoint x="55" y="180" />
            </Array>
          </mxGeometry>
        </mxCell>
        <mxCell id="EA676hMaUVOyt8Dl_54U-43" value="cadastro realizado" style="rounded=0;whiteSpace=wrap;html=1;" parent="1" vertex="1">
          <mxGeometry x="75" y="440" width="120" height="50" as="geometry" />
        </mxCell>
        <mxCell id="EA676hMaUVOyt8Dl_54U-44" value="sim" style="edgeStyle=orthogonalEdgeStyle;rounded=0;orthogonalLoop=1;jettySize=auto;html=1;" parent="1" source="EA676hMaUVOyt8Dl_54U-46" target="EA676hMaUVOyt8Dl_54U-43" edge="1">
          <mxGeometry relative="1" as="geometry" />
        </mxCell>
        <mxCell id="EA676hMaUVOyt8Dl_54U-45" value="não" style="edgeStyle=orthogonalEdgeStyle;rounded=0;orthogonalLoop=1;jettySize=auto;html=1;" parent="1" source="EA676hMaUVOyt8Dl_54U-46" target="EA676hMaUVOyt8Dl_54U-67" edge="1">
          <mxGeometry relative="1" as="geometry" />
        </mxCell>
        <mxCell id="EA676hMaUVOyt8Dl_54U-46" value="dados válidos?" style="rhombus;whiteSpace=wrap;html=1;" parent="1" vertex="1">
          <mxGeometry x="95" y="330" width="80" height="80" as="geometry" />
        </mxCell>
        <mxCell id="EA676hMaUVOyt8Dl_54U-47" value="" style="edgeStyle=orthogonalEdgeStyle;rounded=0;orthogonalLoop=1;jettySize=auto;html=1;" parent="1" source="EA676hMaUVOyt8Dl_54U-48" target="EA676hMaUVOyt8Dl_54U-51" edge="1">
          <mxGeometry relative="1" as="geometry" />
        </mxCell>
        <mxCell id="EA676hMaUVOyt8Dl_54U-48" value="buscar fornecedor&amp;nbsp;" style="rounded=0;whiteSpace=wrap;html=1;" parent="1" vertex="1">
          <mxGeometry x="210" y="155" width="112.5" height="50" as="geometry" />
        </mxCell>
        <mxCell id="EA676hMaUVOyt8Dl_54U-49" value="sim" style="edgeStyle=orthogonalEdgeStyle;rounded=0;orthogonalLoop=1;jettySize=auto;html=1;" parent="1" source="EA676hMaUVOyt8Dl_54U-51" target="EA676hMaUVOyt8Dl_54U-54" edge="1">
          <mxGeometry relative="1" as="geometry" />
        </mxCell>
        <mxCell id="EA676hMaUVOyt8Dl_54U-50" value="não" style="edgeStyle=orthogonalEdgeStyle;rounded=0;orthogonalLoop=1;jettySize=auto;html=1;entryX=0.5;entryY=0;entryDx=0;entryDy=0;" parent="1" source="EA676hMaUVOyt8Dl_54U-51" target="EA676hMaUVOyt8Dl_54U-48" edge="1">
          <mxGeometry relative="1" as="geometry">
            <Array as="points">
              <mxPoint x="400" y="135" />
              <mxPoint x="266" y="135" />
            </Array>
          </mxGeometry>
        </mxCell>
        <mxCell id="EA676hMaUVOyt8Dl_54U-51" value="fornecedor encontrado" style="rhombus;whiteSpace=wrap;html=1;" parent="1" vertex="1">
          <mxGeometry x="360" y="140" width="80" height="80" as="geometry" />
        </mxCell>
        <mxCell id="EA676hMaUVOyt8Dl_54U-52" value="não" style="edgeStyle=orthogonalEdgeStyle;rounded=0;orthogonalLoop=1;jettySize=auto;html=1;" parent="1" source="EA676hMaUVOyt8Dl_54U-54" target="EA676hMaUVOyt8Dl_54U-56" edge="1">
          <mxGeometry relative="1" as="geometry" />
        </mxCell>
        <mxCell id="EA676hMaUVOyt8Dl_54U-53" value="sim" style="edgeStyle=orthogonalEdgeStyle;rounded=0;orthogonalLoop=1;jettySize=auto;html=1;" parent="1" source="EA676hMaUVOyt8Dl_54U-54" target="EA676hMaUVOyt8Dl_54U-65" edge="1">
          <mxGeometry relative="1" as="geometry" />
        </mxCell>
        <mxCell id="EA676hMaUVOyt8Dl_54U-54" value="apagar?" style="rhombus;whiteSpace=wrap;html=1;" parent="1" vertex="1">
          <mxGeometry x="470" y="140" width="80" height="80" as="geometry" />
        </mxCell>
        <mxCell id="EA676hMaUVOyt8Dl_54U-55" value="sim" style="edgeStyle=orthogonalEdgeStyle;rounded=0;orthogonalLoop=1;jettySize=auto;html=1;" parent="1" source="EA676hMaUVOyt8Dl_54U-56" target="EA676hMaUVOyt8Dl_54U-58" edge="1">
          <mxGeometry relative="1" as="geometry" />
        </mxCell>
        <mxCell id="EA676hMaUVOyt8Dl_54U-56" value="atualizar?" style="rhombus;whiteSpace=wrap;html=1;" parent="1" vertex="1">
          <mxGeometry x="580" y="140" width="80" height="80" as="geometry" />
        </mxCell>
        <mxCell id="EA676hMaUVOyt8Dl_54U-57" value="sim" style="edgeStyle=orthogonalEdgeStyle;rounded=0;orthogonalLoop=1;jettySize=auto;html=1;" parent="1" source="EA676hMaUVOyt8Dl_54U-58" target="EA676hMaUVOyt8Dl_54U-60" edge="1">
          <mxGeometry relative="1" as="geometry" />
        </mxCell>
        <mxCell id="EA676hMaUVOyt8Dl_54U-58" value="dados válidos?" style="rhombus;whiteSpace=wrap;html=1;" parent="1" vertex="1">
          <mxGeometry x="580" y="250" width="80" height="80" as="geometry" />
        </mxCell>
        <mxCell id="EA676hMaUVOyt8Dl_54U-59" value="" style="edgeStyle=orthogonalEdgeStyle;rounded=0;orthogonalLoop=1;jettySize=auto;html=1;" parent="1" source="EA676hMaUVOyt8Dl_54U-60" edge="1">
          <mxGeometry relative="1" as="geometry">
            <mxPoint x="620" y="500" as="targetPoint" />
          </mxGeometry>
        </mxCell>
        <mxCell id="EA676hMaUVOyt8Dl_54U-60" value="cadastro atualizado" style="rounded=0;whiteSpace=wrap;html=1;" parent="1" vertex="1">
          <mxGeometry x="565" y="420" width="110" height="50" as="geometry" />
        </mxCell>
        <mxCell id="EA676hMaUVOyt8Dl_54U-61" style="edgeStyle=orthogonalEdgeStyle;rounded=0;orthogonalLoop=1;jettySize=auto;html=1;entryX=0.613;entryY=0.913;entryDx=0;entryDy=0;entryPerimeter=0;exitX=0;exitY=0.5;exitDx=0;exitDy=0;" parent="1" source="EA676hMaUVOyt8Dl_54U-62" target="EA676hMaUVOyt8Dl_54U-39" edge="1">
          <mxGeometry relative="1" as="geometry">
            <mxPoint x="160" y="220" as="targetPoint" />
            <mxPoint x="460" y="430" as="sourcePoint" />
            <Array as="points">
              <mxPoint x="460" y="400" />
              <mxPoint x="430" y="400" />
              <mxPoint x="430" y="290" />
              <mxPoint x="220" y="290" />
              <mxPoint x="220" y="230" />
              <mxPoint x="144" y="230" />
            </Array>
          </mxGeometry>
        </mxCell>
        <mxCell id="EA676hMaUVOyt8Dl_54U-62" value="apagar fornecedor" style="rounded=0;whiteSpace=wrap;html=1;" parent="1" vertex="1">
          <mxGeometry x="460" y="370" width="100" height="50" as="geometry" />
        </mxCell>
        <mxCell id="EA676hMaUVOyt8Dl_54U-63" value="" style="edgeStyle=orthogonalEdgeStyle;rounded=0;orthogonalLoop=1;jettySize=auto;html=1;" parent="1" source="EA676hMaUVOyt8Dl_54U-65" target="EA676hMaUVOyt8Dl_54U-62" edge="1">
          <mxGeometry relative="1" as="geometry" />
        </mxCell>
        <mxCell id="EA676hMaUVOyt8Dl_54U-64" value="não" style="edgeStyle=orthogonalEdgeStyle;rounded=0;orthogonalLoop=1;jettySize=auto;html=1;entryX=0.5;entryY=1;entryDx=0;entryDy=0;" parent="1" source="EA676hMaUVOyt8Dl_54U-65" target="EA676hMaUVOyt8Dl_54U-51" edge="1">
          <mxGeometry relative="1" as="geometry" />
        </mxCell>
        <mxCell id="EA676hMaUVOyt8Dl_54U-65" value="confirmação?" style="rhombus;whiteSpace=wrap;html=1;" parent="1" vertex="1">
          <mxGeometry x="470" y="240" width="80" height="80" as="geometry" />
        </mxCell>
        <mxCell id="EA676hMaUVOyt8Dl_54U-66" value="fim" style="ellipse;whiteSpace=wrap;html=1;" parent="1" vertex="1">
          <mxGeometry x="567.5" y="498" width="105" height="60" as="geometry" />
        </mxCell>
        <mxCell id="EA676hMaUVOyt8Dl_54U-67" value="mostrar erro&amp;nbsp;" style="rounded=0;whiteSpace=wrap;html=1;" parent="1" vertex="1">
          <mxGeometry x="212.5" y="345" width="110" height="50" as="geometry" />
        </mxCell>
        <mxCell id="EA676hMaUVOyt8Dl_54U-68" style="edgeStyle=orthogonalEdgeStyle;rounded=0;orthogonalLoop=1;jettySize=auto;html=1;entryX=0.838;entryY=0.725;entryDx=0;entryDy=0;entryPerimeter=0;" parent="1" source="EA676hMaUVOyt8Dl_54U-60" target="EA676hMaUVOyt8Dl_54U-39" edge="1">
          <mxGeometry relative="1" as="geometry">
            <Array as="points">
              <mxPoint x="360" y="445" />
              <mxPoint x="360" y="220" />
              <mxPoint x="162" y="220" />
            </Array>
          </mxGeometry>
        </mxCell>
      </root>
    </mxGraphModel>
  </diagram>
  <diagram id="icA_B1dYd6gmF1E8ug1H" name="Página-3">
    <mxGraphModel dx="1434" dy="782" grid="1" gridSize="10" guides="1" tooltips="1" connect="1" arrows="1" fold="1" page="1" pageScale="1" pageWidth="827" pageHeight="1169" math="0" shadow="0">
      <root>
        <mxCell id="0" />
        <mxCell id="1" parent="0" />
        <mxCell id="37k68M66aMIn7sRB3Acw-1" value="" style="edgeStyle=orthogonalEdgeStyle;rounded=0;orthogonalLoop=1;jettySize=auto;html=1;" edge="1" parent="1" source="37k68M66aMIn7sRB3Acw-2" target="37k68M66aMIn7sRB3Acw-5">
          <mxGeometry relative="1" as="geometry" />
        </mxCell>
        <mxCell id="37k68M66aMIn7sRB3Acw-2" value="início" style="ellipse;whiteSpace=wrap;html=1;" vertex="1" parent="1">
          <mxGeometry x="75" y="35" width="120" height="65" as="geometry" />
        </mxCell>
        <mxCell id="37k68M66aMIn7sRB3Acw-3" value="não" style="edgeStyle=orthogonalEdgeStyle;rounded=0;orthogonalLoop=1;jettySize=auto;html=1;" edge="1" parent="1" source="37k68M66aMIn7sRB3Acw-5" target="37k68M66aMIn7sRB3Acw-7">
          <mxGeometry relative="1" as="geometry" />
        </mxCell>
        <mxCell id="37k68M66aMIn7sRB3Acw-4" value="sim" style="edgeStyle=orthogonalEdgeStyle;rounded=0;orthogonalLoop=1;jettySize=auto;html=1;" edge="1" parent="1" source="37k68M66aMIn7sRB3Acw-5" target="37k68M66aMIn7sRB3Acw-14">
          <mxGeometry relative="1" as="geometry" />
        </mxCell>
        <mxCell id="37k68M66aMIn7sRB3Acw-5" value="estoque cadastrado&amp;nbsp;" style="rhombus;whiteSpace=wrap;html=1;" vertex="1" parent="1">
          <mxGeometry x="95" y="140" width="80" height="80" as="geometry" />
        </mxCell>
        <mxCell id="37k68M66aMIn7sRB3Acw-6" value="" style="edgeStyle=orthogonalEdgeStyle;rounded=0;orthogonalLoop=1;jettySize=auto;html=1;" edge="1" parent="1" source="37k68M66aMIn7sRB3Acw-7" target="37k68M66aMIn7sRB3Acw-12">
          <mxGeometry relative="1" as="geometry" />
        </mxCell>
        <mxCell id="37k68M66aMIn7sRB3Acw-7" value="cadastrar estoque&amp;nbsp;" style="rounded=0;whiteSpace=wrap;html=1;" vertex="1" parent="1">
          <mxGeometry x="80" y="250" width="110" height="50" as="geometry" />
        </mxCell>
        <mxCell id="37k68M66aMIn7sRB3Acw-8" style="edgeStyle=orthogonalEdgeStyle;rounded=0;orthogonalLoop=1;jettySize=auto;html=1;entryX=0;entryY=0.5;entryDx=0;entryDy=0;" edge="1" parent="1" source="37k68M66aMIn7sRB3Acw-9" target="37k68M66aMIn7sRB3Acw-5">
          <mxGeometry relative="1" as="geometry">
            <Array as="points">
              <mxPoint x="55" y="465" />
              <mxPoint x="55" y="180" />
            </Array>
          </mxGeometry>
        </mxCell>
        <mxCell id="37k68M66aMIn7sRB3Acw-9" value="cadastro de estoque realizado" style="rounded=0;whiteSpace=wrap;html=1;" vertex="1" parent="1">
          <mxGeometry x="75" y="440" width="120" height="50" as="geometry" />
        </mxCell>
        <mxCell id="37k68M66aMIn7sRB3Acw-10" value="sim" style="edgeStyle=orthogonalEdgeStyle;rounded=0;orthogonalLoop=1;jettySize=auto;html=1;" edge="1" parent="1" source="37k68M66aMIn7sRB3Acw-12" target="37k68M66aMIn7sRB3Acw-9">
          <mxGeometry relative="1" as="geometry" />
        </mxCell>
        <mxCell id="37k68M66aMIn7sRB3Acw-11" value="não" style="edgeStyle=orthogonalEdgeStyle;rounded=0;orthogonalLoop=1;jettySize=auto;html=1;" edge="1" parent="1" source="37k68M66aMIn7sRB3Acw-12" target="37k68M66aMIn7sRB3Acw-33">
          <mxGeometry relative="1" as="geometry" />
        </mxCell>
        <mxCell id="37k68M66aMIn7sRB3Acw-12" value="dados válidos?" style="rhombus;whiteSpace=wrap;html=1;" vertex="1" parent="1">
          <mxGeometry x="95" y="330" width="80" height="80" as="geometry" />
        </mxCell>
        <mxCell id="37k68M66aMIn7sRB3Acw-13" value="" style="edgeStyle=orthogonalEdgeStyle;rounded=0;orthogonalLoop=1;jettySize=auto;html=1;" edge="1" parent="1" source="37k68M66aMIn7sRB3Acw-14" target="37k68M66aMIn7sRB3Acw-17">
          <mxGeometry relative="1" as="geometry" />
        </mxCell>
        <mxCell id="37k68M66aMIn7sRB3Acw-14" value="&amp;nbsp;buscar no estoque" style="rounded=0;whiteSpace=wrap;html=1;" vertex="1" parent="1">
          <mxGeometry x="210" y="155" width="112.5" height="50" as="geometry" />
        </mxCell>
        <mxCell id="37k68M66aMIn7sRB3Acw-15" value="sim" style="edgeStyle=orthogonalEdgeStyle;rounded=0;orthogonalLoop=1;jettySize=auto;html=1;" edge="1" parent="1" source="37k68M66aMIn7sRB3Acw-17" target="37k68M66aMIn7sRB3Acw-20">
          <mxGeometry relative="1" as="geometry" />
        </mxCell>
        <mxCell id="37k68M66aMIn7sRB3Acw-16" value="não" style="edgeStyle=orthogonalEdgeStyle;rounded=0;orthogonalLoop=1;jettySize=auto;html=1;entryX=0.5;entryY=0;entryDx=0;entryDy=0;" edge="1" parent="1" source="37k68M66aMIn7sRB3Acw-17" target="37k68M66aMIn7sRB3Acw-14">
          <mxGeometry relative="1" as="geometry">
            <Array as="points">
              <mxPoint x="400" y="135" />
              <mxPoint x="266" y="135" />
            </Array>
          </mxGeometry>
        </mxCell>
        <mxCell id="37k68M66aMIn7sRB3Acw-17" value="estoque encontardo" style="rhombus;whiteSpace=wrap;html=1;" vertex="1" parent="1">
          <mxGeometry x="360" y="140" width="80" height="80" as="geometry" />
        </mxCell>
        <mxCell id="37k68M66aMIn7sRB3Acw-18" value="não" style="edgeStyle=orthogonalEdgeStyle;rounded=0;orthogonalLoop=1;jettySize=auto;html=1;" edge="1" parent="1" source="37k68M66aMIn7sRB3Acw-20" target="37k68M66aMIn7sRB3Acw-22">
          <mxGeometry relative="1" as="geometry" />
        </mxCell>
        <mxCell id="37k68M66aMIn7sRB3Acw-19" value="sim" style="edgeStyle=orthogonalEdgeStyle;rounded=0;orthogonalLoop=1;jettySize=auto;html=1;" edge="1" parent="1" source="37k68M66aMIn7sRB3Acw-20" target="37k68M66aMIn7sRB3Acw-31">
          <mxGeometry relative="1" as="geometry" />
        </mxCell>
        <mxCell id="37k68M66aMIn7sRB3Acw-20" value="apagar?" style="rhombus;whiteSpace=wrap;html=1;" vertex="1" parent="1">
          <mxGeometry x="470" y="140" width="80" height="80" as="geometry" />
        </mxCell>
        <mxCell id="37k68M66aMIn7sRB3Acw-21" value="sim" style="edgeStyle=orthogonalEdgeStyle;rounded=0;orthogonalLoop=1;jettySize=auto;html=1;" edge="1" parent="1" source="37k68M66aMIn7sRB3Acw-22" target="37k68M66aMIn7sRB3Acw-24">
          <mxGeometry relative="1" as="geometry" />
        </mxCell>
        <mxCell id="37k68M66aMIn7sRB3Acw-22" value="atualizar?" style="rhombus;whiteSpace=wrap;html=1;" vertex="1" parent="1">
          <mxGeometry x="580" y="140" width="80" height="80" as="geometry" />
        </mxCell>
        <mxCell id="37k68M66aMIn7sRB3Acw-23" value="sim" style="edgeStyle=orthogonalEdgeStyle;rounded=0;orthogonalLoop=1;jettySize=auto;html=1;" edge="1" parent="1" source="37k68M66aMIn7sRB3Acw-24" target="37k68M66aMIn7sRB3Acw-26">
          <mxGeometry relative="1" as="geometry" />
        </mxCell>
        <mxCell id="37k68M66aMIn7sRB3Acw-24" value="dados válidos?" style="rhombus;whiteSpace=wrap;html=1;" vertex="1" parent="1">
          <mxGeometry x="580" y="250" width="80" height="80" as="geometry" />
        </mxCell>
        <mxCell id="37k68M66aMIn7sRB3Acw-25" value="" style="edgeStyle=orthogonalEdgeStyle;rounded=0;orthogonalLoop=1;jettySize=auto;html=1;" edge="1" parent="1" source="37k68M66aMIn7sRB3Acw-26">
          <mxGeometry relative="1" as="geometry">
            <mxPoint x="620" y="500" as="targetPoint" />
          </mxGeometry>
        </mxCell>
        <mxCell id="37k68M66aMIn7sRB3Acw-26" value="cadastro de estoque atualizado" style="rounded=0;whiteSpace=wrap;html=1;" vertex="1" parent="1">
          <mxGeometry x="565" y="420" width="110" height="50" as="geometry" />
        </mxCell>
        <mxCell id="37k68M66aMIn7sRB3Acw-27" style="edgeStyle=orthogonalEdgeStyle;rounded=0;orthogonalLoop=1;jettySize=auto;html=1;entryX=0.613;entryY=0.913;entryDx=0;entryDy=0;entryPerimeter=0;exitX=0;exitY=0.5;exitDx=0;exitDy=0;" edge="1" parent="1" source="37k68M66aMIn7sRB3Acw-28" target="37k68M66aMIn7sRB3Acw-5">
          <mxGeometry relative="1" as="geometry">
            <mxPoint x="160" y="220" as="targetPoint" />
            <mxPoint x="460" y="430" as="sourcePoint" />
            <Array as="points">
              <mxPoint x="460" y="400" />
              <mxPoint x="430" y="400" />
              <mxPoint x="430" y="290" />
              <mxPoint x="220" y="290" />
              <mxPoint x="220" y="230" />
              <mxPoint x="144" y="230" />
            </Array>
          </mxGeometry>
        </mxCell>
        <mxCell id="37k68M66aMIn7sRB3Acw-28" value="apagar estoque" style="rounded=0;whiteSpace=wrap;html=1;" vertex="1" parent="1">
          <mxGeometry x="460" y="370" width="100" height="50" as="geometry" />
        </mxCell>
        <mxCell id="37k68M66aMIn7sRB3Acw-29" value="" style="edgeStyle=orthogonalEdgeStyle;rounded=0;orthogonalLoop=1;jettySize=auto;html=1;" edge="1" parent="1" source="37k68M66aMIn7sRB3Acw-31" target="37k68M66aMIn7sRB3Acw-28">
          <mxGeometry relative="1" as="geometry" />
        </mxCell>
        <mxCell id="37k68M66aMIn7sRB3Acw-30" value="não" style="edgeStyle=orthogonalEdgeStyle;rounded=0;orthogonalLoop=1;jettySize=auto;html=1;entryX=0.5;entryY=1;entryDx=0;entryDy=0;" edge="1" parent="1" source="37k68M66aMIn7sRB3Acw-31" target="37k68M66aMIn7sRB3Acw-17">
          <mxGeometry relative="1" as="geometry" />
        </mxCell>
        <mxCell id="37k68M66aMIn7sRB3Acw-31" value="confirmação?" style="rhombus;whiteSpace=wrap;html=1;" vertex="1" parent="1">
          <mxGeometry x="470" y="240" width="80" height="80" as="geometry" />
        </mxCell>
        <mxCell id="37k68M66aMIn7sRB3Acw-32" value="fim" style="ellipse;whiteSpace=wrap;html=1;" vertex="1" parent="1">
          <mxGeometry x="567.5" y="498" width="105" height="60" as="geometry" />
        </mxCell>
        <mxCell id="37k68M66aMIn7sRB3Acw-33" value="mostrar erro&amp;nbsp;" style="rounded=0;whiteSpace=wrap;html=1;" vertex="1" parent="1">
          <mxGeometry x="212.5" y="345" width="110" height="50" as="geometry" />
        </mxCell>
        <mxCell id="37k68M66aMIn7sRB3Acw-34" style="edgeStyle=orthogonalEdgeStyle;rounded=0;orthogonalLoop=1;jettySize=auto;html=1;entryX=0.838;entryY=0.725;entryDx=0;entryDy=0;entryPerimeter=0;" edge="1" parent="1" source="37k68M66aMIn7sRB3Acw-26" target="37k68M66aMIn7sRB3Acw-5">
          <mxGeometry relative="1" as="geometry">
            <Array as="points">
              <mxPoint x="360" y="445" />
              <mxPoint x="360" y="220" />
              <mxPoint x="162" y="220" />
            </Array>
          </mxGeometry>
        </mxCell>
      </root>
    </mxGraphModel>
  </diagram>
  <diagram id="LFSaVql5OYWhuBEmUT0U" name="Página-4">
    <mxGraphModel dx="2261" dy="782" grid="1" gridSize="10" guides="1" tooltips="1" connect="1" arrows="1" fold="1" page="1" pageScale="1" pageWidth="827" pageHeight="1169" math="0" shadow="0">
      <root>
        <mxCell id="0" />
        <mxCell id="1" parent="0" />
        <mxCell id="I8tuX_kgQduZuLbsErg5-8" value="" style="shape=ext;double=1;rounded=1;whiteSpace=wrap;html=1;fillColor=#dae8fc;strokeColor=#6c8ebf;shadow=0;glass=1;arcSize=13;gradientColor=#7ea6e0;" parent="1" vertex="1">
          <mxGeometry x="199" y="90" width="450" height="800" as="geometry" />
        </mxCell>
        <mxCell id="I8tuX_kgQduZuLbsErg5-11" value="" style="shape=ext;double=1;rounded=1;whiteSpace=wrap;html=1;glass=0;shadow=0;align=right;arcSize=13;" parent="1" vertex="1">
          <mxGeometry x="224" y="220" width="206" height="30" as="geometry" />
        </mxCell>
        <mxCell id="I8tuX_kgQduZuLbsErg5-87" value="" style="shape=ext;double=1;rounded=1;whiteSpace=wrap;html=1;" parent="1" vertex="1">
          <mxGeometry x="224" y="290" width="206" height="30" as="geometry" />
        </mxCell>
        <mxCell id="2a1SnmIciHLKmUoZLJjn-2" value="" style="shape=ext;double=1;rounded=1;whiteSpace=wrap;html=1;" parent="1" vertex="1">
          <mxGeometry x="224" y="360" width="396" height="30" as="geometry" />
        </mxCell>
        <mxCell id="2a1SnmIciHLKmUoZLJjn-3" value="" style="shape=ext;double=1;rounded=1;whiteSpace=wrap;html=1;" parent="1" vertex="1">
          <mxGeometry x="224" y="430" width="396" height="30" as="geometry" />
        </mxCell>
        <mxCell id="mc5MefgIwjIjDEtzDNup-1" value="Nome:" style="text;html=1;align=center;verticalAlign=middle;whiteSpace=wrap;rounded=0;" parent="1" vertex="1">
          <mxGeometry x="220" y="200" width="60" height="20" as="geometry" />
        </mxCell>
        <mxCell id="mc5MefgIwjIjDEtzDNup-2" value="Sobrenome:" style="text;html=1;align=center;verticalAlign=middle;whiteSpace=wrap;rounded=0;" parent="1" vertex="1">
          <mxGeometry x="220" y="260" width="80" height="30" as="geometry" />
        </mxCell>
        <mxCell id="mc5MefgIwjIjDEtzDNup-3" value="&amp;nbsp; CPF:" style="text;html=1;align=center;verticalAlign=middle;whiteSpace=wrap;rounded=0;" parent="1" vertex="1">
          <mxGeometry x="210" y="330" width="60" height="30" as="geometry" />
        </mxCell>
        <mxCell id="mc5MefgIwjIjDEtzDNup-4" value="Telefone:" style="text;html=1;align=center;verticalAlign=middle;whiteSpace=wrap;rounded=0;" parent="1" vertex="1">
          <mxGeometry x="224" y="400" width="60" height="30" as="geometry" />
        </mxCell>
        <mxCell id="mc5MefgIwjIjDEtzDNup-5" value="CADASTRAR-SE" style="shape=ext;double=1;rounded=1;whiteSpace=wrap;html=1;shadow=0;fillColor=#66B2FF;strokeColor=#330000;" parent="1" vertex="1">
          <mxGeometry x="349" y="740" width="152" height="30" as="geometry" />
        </mxCell>
        <mxCell id="mc5MefgIwjIjDEtzDNup-7" value="Cadastrar cliente" style="text;strokeColor=none;fillColor=none;html=1;fontSize=24;fontStyle=1;verticalAlign=middle;align=center;" parent="1" vertex="1">
          <mxGeometry x="375" y="130" width="100" height="40" as="geometry" />
        </mxCell>
        <mxCell id="mc5MefgIwjIjDEtzDNup-9" value="" style="shape=link;html=1;rounded=0;" parent="1" edge="1">
          <mxGeometry width="100" relative="1" as="geometry">
            <mxPoint x="285" y="170" as="sourcePoint" />
            <mxPoint x="565" y="170" as="targetPoint" />
          </mxGeometry>
        </mxCell>
        <mxCell id="mc5MefgIwjIjDEtzDNup-10" value="&lt;font color=&quot;#cc0000&quot; style=&quot;font-size: 28px;&quot;&gt;*&lt;/font&gt;" style="text;html=1;align=center;verticalAlign=middle;whiteSpace=wrap;rounded=0;" parent="1" vertex="1">
          <mxGeometry x="414" y="215" width="60" height="30" as="geometry" />
        </mxCell>
        <mxCell id="mc5MefgIwjIjDEtzDNup-11" value="&lt;span style=&quot;color: rgb(204, 0, 0); font-size: 28px;&quot;&gt;*&lt;/span&gt;" style="text;html=1;align=center;verticalAlign=middle;whiteSpace=wrap;rounded=0;" parent="1" vertex="1">
          <mxGeometry x="600" y="430" width="60" height="30" as="geometry" />
        </mxCell>
        <mxCell id="mc5MefgIwjIjDEtzDNup-12" value="&lt;span style=&quot;color: rgb(204, 0, 0); font-size: 28px;&quot;&gt;*&lt;/span&gt;" style="text;html=1;align=center;verticalAlign=middle;whiteSpace=wrap;rounded=0;" parent="1" vertex="1">
          <mxGeometry x="600" y="360" width="60" height="30" as="geometry" />
        </mxCell>
        <mxCell id="mc5MefgIwjIjDEtzDNup-13" value="&lt;span style=&quot;color: rgb(204, 0, 0); font-size: 28px;&quot;&gt;*&lt;/span&gt;" style="text;html=1;align=center;verticalAlign=middle;whiteSpace=wrap;rounded=0;" parent="1" vertex="1">
          <mxGeometry x="414" y="290" width="60" height="30" as="geometry" />
        </mxCell>
        <mxCell id="mc5MefgIwjIjDEtzDNup-14" value="Possuo cadastro&amp;gt;&amp;gt;" style="text;html=1;align=center;verticalAlign=middle;whiteSpace=wrap;rounded=0;" parent="1" vertex="1">
          <mxGeometry x="349" y="780" width="120" height="30" as="geometry" />
        </mxCell>
        <mxCell id="mc5MefgIwjIjDEtzDNup-18" value="" style="endArrow=none;html=1;rounded=0;" parent="1" edge="1">
          <mxGeometry width="50" height="50" relative="1" as="geometry">
            <mxPoint x="339.72999999999996" y="810" as="sourcePoint" />
            <mxPoint x="504.28" y="810" as="targetPoint" />
          </mxGeometry>
        </mxCell>
        <mxCell id="mrSXDmg-fnLcTKGj0scg-1" value="" style="shape=actor;whiteSpace=wrap;html=1;" parent="1" vertex="1">
          <mxGeometry x="469" y="785" width="20" height="20" as="geometry" />
        </mxCell>
        <mxCell id="ivj40EYaTSKpbwWGstln-1" value="" style="verticalLabelPosition=bottom;verticalAlign=top;html=1;shape=mxgraph.basic.x;fillColor=#CC0000;" parent="1" vertex="1">
          <mxGeometry x="284" y="610" width="39.5" height="40" as="geometry" />
        </mxCell>
        <mxCell id="ZlxYYfDy7bpVFxWAO8K8-1" value="" style="verticalLabelPosition=bottom;verticalAlign=top;html=1;shape=mxgraph.basic.tick;fillColor=#006633;" parent="1" vertex="1">
          <mxGeometry x="510" y="610" width="40" height="40" as="geometry" />
        </mxCell>
        <mxCell id="TG-rx5n8qkeB_Ika69Mv-1" value="APAGAR DADOS" style="text;html=1;align=center;verticalAlign=middle;whiteSpace=wrap;rounded=0;" parent="1" vertex="1">
          <mxGeometry x="253.75" y="660" width="100" height="30" as="geometry" />
        </mxCell>
        <mxCell id="TFMKvmCg46DmoSamP-R1-9" value="" style="edgeStyle=orthogonalEdgeStyle;rounded=0;orthogonalLoop=1;jettySize=auto;html=1;entryX=0;entryY=0.5;entryDx=0;entryDy=0;" parent="1" source="TG-rx5n8qkeB_Ika69Mv-2" target="TFMKvmCg46DmoSamP-R1-4" edge="1">
          <mxGeometry relative="1" as="geometry" />
        </mxCell>
        <mxCell id="TG-rx5n8qkeB_Ika69Mv-2" value="SALVAR DADOS" style="text;html=1;align=center;verticalAlign=middle;whiteSpace=wrap;rounded=0;" parent="1" vertex="1">
          <mxGeometry x="480" y="660" width="100" height="30" as="geometry" />
        </mxCell>
        <mxCell id="q-BJkI9HlPdHQNUmnqpX-1" value="" style="shape=ext;double=1;rounded=0;whiteSpace=wrap;html=1;fillColor=#dae8fc;strokeColor=#6c8ebf;glass=1;gradientColor=#7ea6e0;" parent="1" vertex="1">
          <mxGeometry x="746" y="200" width="895" height="590" as="geometry" />
        </mxCell>
        <mxCell id="q-BJkI9HlPdHQNUmnqpX-2" value="CADASTRAR-SE" style="shape=ext;double=1;rounded=1;whiteSpace=wrap;html=1;shadow=0;fillColor=#66B2FF;strokeColor=#330000;" parent="1" vertex="1">
          <mxGeometry x="1128" y="610" width="152" height="30" as="geometry" />
        </mxCell>
        <mxCell id="q-BJkI9HlPdHQNUmnqpX-30" style="edgeStyle=orthogonalEdgeStyle;rounded=0;orthogonalLoop=1;jettySize=auto;html=1;exitX=0.5;exitY=1;exitDx=0;exitDy=0;" parent="1" edge="1">
          <mxGeometry relative="1" as="geometry">
            <mxPoint x="1364" y="465" as="sourcePoint" />
            <mxPoint x="1364" y="465" as="targetPoint" />
          </mxGeometry>
        </mxCell>
        <mxCell id="q-BJkI9HlPdHQNUmnqpX-32" value="" style="shape=link;html=1;rounded=0;" parent="1" edge="1">
          <mxGeometry width="100" relative="1" as="geometry">
            <mxPoint x="1035" y="295" as="sourcePoint" />
            <mxPoint x="1315" y="295" as="targetPoint" />
          </mxGeometry>
        </mxCell>
        <mxCell id="q-BJkI9HlPdHQNUmnqpX-36" value="Cadastrar cliente" style="text;strokeColor=none;fillColor=none;html=1;fontSize=24;fontStyle=1;verticalAlign=middle;align=center;" parent="1" vertex="1">
          <mxGeometry x="1134.9999999999998" y="245" width="100" height="40" as="geometry" />
        </mxCell>
        <mxCell id="q-BJkI9HlPdHQNUmnqpX-37" value="" style="shape=ext;double=1;rounded=1;whiteSpace=wrap;html=1;glass=0;shadow=0;align=right;arcSize=13;" parent="1" vertex="1">
          <mxGeometry x="784" y="330" width="496" height="30" as="geometry" />
        </mxCell>
        <mxCell id="q-BJkI9HlPdHQNUmnqpX-38" value="" style="shape=ext;double=1;rounded=1;whiteSpace=wrap;html=1;" parent="1" vertex="1">
          <mxGeometry x="784" y="400" width="496" height="30" as="geometry" />
        </mxCell>
        <mxCell id="q-BJkI9HlPdHQNUmnqpX-39" value="Nome:" style="text;html=1;align=center;verticalAlign=middle;whiteSpace=wrap;rounded=0;" parent="1" vertex="1">
          <mxGeometry x="790" y="310" width="50" height="20" as="geometry" />
        </mxCell>
        <mxCell id="q-BJkI9HlPdHQNUmnqpX-40" value="Sobrenome:" style="text;html=1;align=center;verticalAlign=middle;whiteSpace=wrap;rounded=0;" parent="1" vertex="1">
          <mxGeometry x="780" y="370" width="80" height="30" as="geometry" />
        </mxCell>
        <mxCell id="q-BJkI9HlPdHQNUmnqpX-41" value="&amp;nbsp; CPF:" style="text;html=1;align=center;verticalAlign=middle;whiteSpace=wrap;rounded=0;" parent="1" vertex="1">
          <mxGeometry x="770" y="440" width="60" height="30" as="geometry" />
        </mxCell>
        <mxCell id="q-BJkI9HlPdHQNUmnqpX-42" value="Telefone:" style="text;html=1;align=center;verticalAlign=middle;whiteSpace=wrap;rounded=0;" parent="1" vertex="1">
          <mxGeometry x="784" y="510" width="60" height="30" as="geometry" />
        </mxCell>
        <mxCell id="q-BJkI9HlPdHQNUmnqpX-44" value="&lt;font color=&quot;#cc0000&quot; style=&quot;font-size: 28px;&quot;&gt;*&lt;/font&gt;" style="text;html=1;align=center;verticalAlign=middle;whiteSpace=wrap;rounded=0;" parent="1" vertex="1">
          <mxGeometry x="1261" y="330" width="60" height="30" as="geometry" />
        </mxCell>
        <mxCell id="q-BJkI9HlPdHQNUmnqpX-45" value="&lt;span style=&quot;color: rgb(204, 0, 0); font-size: 28px;&quot;&gt;*&lt;/span&gt;" style="text;html=1;align=center;verticalAlign=middle;whiteSpace=wrap;rounded=0;" parent="1" vertex="1">
          <mxGeometry x="1261" y="400" width="60" height="30" as="geometry" />
        </mxCell>
        <mxCell id="q-BJkI9HlPdHQNUmnqpX-46" value="Possuo cadastro&amp;gt;&amp;gt;" style="text;html=1;align=center;verticalAlign=middle;whiteSpace=wrap;rounded=0;" parent="1" vertex="1">
          <mxGeometry x="1128" y="650" width="120" height="30" as="geometry" />
        </mxCell>
        <mxCell id="q-BJkI9HlPdHQNUmnqpX-47" value="" style="endArrow=none;html=1;rounded=0;" parent="1" edge="1">
          <mxGeometry width="50" height="50" relative="1" as="geometry">
            <mxPoint x="1121.72" y="680" as="sourcePoint" />
            <mxPoint x="1286.27" y="680" as="targetPoint" />
          </mxGeometry>
        </mxCell>
        <mxCell id="q-BJkI9HlPdHQNUmnqpX-48" value="" style="shape=actor;whiteSpace=wrap;html=1;" parent="1" vertex="1">
          <mxGeometry x="1248" y="650" width="20" height="20" as="geometry" />
        </mxCell>
        <mxCell id="q-BJkI9HlPdHQNUmnqpX-49" value="" style="verticalLabelPosition=bottom;verticalAlign=top;html=1;shape=mxgraph.basic.x;fillColor=#CC0000;" parent="1" vertex="1">
          <mxGeometry x="1350" y="490" width="39.5" height="40" as="geometry" />
        </mxCell>
        <mxCell id="q-BJkI9HlPdHQNUmnqpX-50" value="" style="verticalLabelPosition=bottom;verticalAlign=top;html=1;shape=mxgraph.basic.tick;fillColor=#006633;" parent="1" vertex="1">
          <mxGeometry x="1500" y="490" width="40" height="40" as="geometry" />
        </mxCell>
        <mxCell id="q-BJkI9HlPdHQNUmnqpX-51" value="APAGAR DADOS" style="text;html=1;align=center;verticalAlign=middle;whiteSpace=wrap;rounded=0;" parent="1" vertex="1">
          <mxGeometry x="1321" y="530" width="100" height="30" as="geometry" />
        </mxCell>
        <mxCell id="L_angLtkKE2Yx2q2_W4K-15" value="" style="edgeStyle=orthogonalEdgeStyle;rounded=0;orthogonalLoop=1;jettySize=auto;html=1;" parent="1" source="q-BJkI9HlPdHQNUmnqpX-52" target="L_angLtkKE2Yx2q2_W4K-6" edge="1">
          <mxGeometry relative="1" as="geometry">
            <mxPoint x="1510" y="650" as="targetPoint" />
            <Array as="points">
              <mxPoint x="1510" y="690" />
              <mxPoint x="1510" y="690" />
            </Array>
          </mxGeometry>
        </mxCell>
        <mxCell id="q-BJkI9HlPdHQNUmnqpX-52" value="SALVAR DADOS" style="text;html=1;align=center;verticalAlign=middle;whiteSpace=wrap;rounded=0;" parent="1" vertex="1">
          <mxGeometry x="1460" y="530" width="100" height="30" as="geometry" />
        </mxCell>
        <mxCell id="q-BJkI9HlPdHQNUmnqpX-53" value="" style="shape=ext;double=1;rounded=1;whiteSpace=wrap;html=1;" parent="1" vertex="1">
          <mxGeometry x="784" y="470" width="396" height="30" as="geometry" />
        </mxCell>
        <mxCell id="q-BJkI9HlPdHQNUmnqpX-54" value="" style="shape=ext;double=1;rounded=1;whiteSpace=wrap;html=1;" parent="1" vertex="1">
          <mxGeometry x="784" y="540" width="396" height="30" as="geometry" />
        </mxCell>
        <mxCell id="q-BJkI9HlPdHQNUmnqpX-55" value="&lt;span style=&quot;color: rgb(204, 0, 0); font-size: 28px;&quot;&gt;*&lt;/span&gt;" style="text;html=1;align=center;verticalAlign=middle;whiteSpace=wrap;rounded=0;" parent="1" vertex="1">
          <mxGeometry x="1160" y="470" width="60" height="30" as="geometry" />
        </mxCell>
        <mxCell id="q-BJkI9HlPdHQNUmnqpX-56" value="&lt;span style=&quot;color: rgb(204, 0, 0); font-size: 28px;&quot;&gt;*&lt;/span&gt;" style="text;html=1;align=center;verticalAlign=middle;whiteSpace=wrap;rounded=0;" parent="1" vertex="1">
          <mxGeometry x="1160" y="540" width="60" height="30" as="geometry" />
        </mxCell>
        <mxCell id="_PSoAdElaiYGUjvBhFve-24" value="" style="shape=ext;double=1;rounded=1;whiteSpace=wrap;html=1;fillColor=#dae8fc;strokeColor=#6c8ebf;shadow=0;glass=1;arcSize=13;gradientColor=#7ea6e0;" parent="1" vertex="1">
          <mxGeometry x="-340" y="115" width="450" height="800" as="geometry" />
        </mxCell>
        <mxCell id="_PSoAdElaiYGUjvBhFve-34" value="Clientes" style="text;strokeColor=none;fillColor=none;html=1;fontSize=24;fontStyle=1;verticalAlign=middle;align=center;" parent="1" vertex="1">
          <mxGeometry x="-172" y="140" width="100" height="40" as="geometry" />
        </mxCell>
        <mxCell id="_PSoAdElaiYGUjvBhFve-35" value="" style="shape=link;html=1;rounded=0;" parent="1" edge="1">
          <mxGeometry width="100" relative="1" as="geometry">
            <mxPoint x="-262" y="199" as="sourcePoint" />
            <mxPoint x="18" y="199" as="targetPoint" />
          </mxGeometry>
        </mxCell>
        <mxCell id="_PSoAdElaiYGUjvBhFve-47" value="" style="rounded=1;whiteSpace=wrap;html=1;" parent="1" vertex="1">
          <mxGeometry x="-289.5" y="310" width="335" height="515" as="geometry" />
        </mxCell>
        <mxCell id="TFMKvmCg46DmoSamP-R1-2" value="" style="edgeStyle=orthogonalEdgeStyle;rounded=0;orthogonalLoop=1;jettySize=auto;html=1;" parent="1" source="_PSoAdElaiYGUjvBhFve-48" target="I8tuX_kgQduZuLbsErg5-8" edge="1">
          <mxGeometry relative="1" as="geometry">
            <mxPoint x="195" y="800" as="targetPoint" />
            <Array as="points">
              <mxPoint x="160" y="855" />
              <mxPoint x="160" y="490" />
            </Array>
          </mxGeometry>
        </mxCell>
        <mxCell id="_PSoAdElaiYGUjvBhFve-48" value="&lt;font style=&quot;font-size: 25px;&quot;&gt;+&lt;/font&gt;" style="rounded=1;whiteSpace=wrap;html=1;fillColor=#647687;strokeColor=#314354;fontColor=#ffffff;" parent="1" vertex="1">
          <mxGeometry y="840" width="30" height="30" as="geometry" />
        </mxCell>
        <mxCell id="_PSoAdElaiYGUjvBhFve-62" value="" style="line;strokeWidth=1;rotatable=0;dashed=0;labelPosition=right;align=left;verticalAlign=middle;spacingTop=0;spacingLeft=6;points=[];portConstraint=eastwest;" parent="1" vertex="1">
          <mxGeometry x="-289.5" y="470" width="335" height="10" as="geometry" />
        </mxCell>
        <mxCell id="_PSoAdElaiYGUjvBhFve-63" value="" style="line;strokeWidth=1;rotatable=0;dashed=0;labelPosition=right;align=left;verticalAlign=middle;spacingTop=0;spacingLeft=6;points=[];portConstraint=eastwest;" parent="1" vertex="1">
          <mxGeometry x="-289.5" y="510" width="335" height="10" as="geometry" />
        </mxCell>
        <mxCell id="_PSoAdElaiYGUjvBhFve-65" value="" style="line;strokeWidth=1;rotatable=0;dashed=0;labelPosition=right;align=left;verticalAlign=middle;spacingTop=0;spacingLeft=6;points=[];portConstraint=eastwest;" parent="1" vertex="1">
          <mxGeometry x="-289.5" y="550" width="335" height="10" as="geometry" />
        </mxCell>
        <mxCell id="_PSoAdElaiYGUjvBhFve-66" value="" style="line;strokeWidth=1;rotatable=0;dashed=0;labelPosition=right;align=left;verticalAlign=middle;spacingTop=0;spacingLeft=6;points=[];portConstraint=eastwest;" parent="1" vertex="1">
          <mxGeometry x="-289.5" y="585" width="335" height="10" as="geometry" />
        </mxCell>
        <mxCell id="_PSoAdElaiYGUjvBhFve-67" value="" style="line;strokeWidth=1;rotatable=0;dashed=0;labelPosition=right;align=left;verticalAlign=middle;spacingTop=0;spacingLeft=6;points=[];portConstraint=eastwest;" parent="1" vertex="1">
          <mxGeometry x="-289.5" y="620" width="335" height="10" as="geometry" />
        </mxCell>
        <mxCell id="_PSoAdElaiYGUjvBhFve-68" value="" style="line;strokeWidth=1;rotatable=0;dashed=0;labelPosition=right;align=left;verticalAlign=middle;spacingTop=0;spacingLeft=6;points=[];portConstraint=eastwest;" parent="1" vertex="1">
          <mxGeometry x="-289.5" y="660" width="335" height="10" as="geometry" />
        </mxCell>
        <mxCell id="_PSoAdElaiYGUjvBhFve-69" value="" style="line;strokeWidth=1;rotatable=0;dashed=0;labelPosition=right;align=left;verticalAlign=middle;spacingTop=0;spacingLeft=6;points=[];portConstraint=eastwest;" parent="1" vertex="1">
          <mxGeometry x="-289.5" y="700" width="335" height="10" as="geometry" />
        </mxCell>
        <mxCell id="_PSoAdElaiYGUjvBhFve-70" value="" style="line;strokeWidth=1;rotatable=0;dashed=0;labelPosition=right;align=left;verticalAlign=middle;spacingTop=0;spacingLeft=6;points=[];portConstraint=eastwest;" parent="1" vertex="1">
          <mxGeometry x="-289.5" y="740" width="335" height="10" as="geometry" />
        </mxCell>
        <mxCell id="_PSoAdElaiYGUjvBhFve-71" value="" style="line;strokeWidth=1;rotatable=0;dashed=0;labelPosition=right;align=left;verticalAlign=middle;spacingTop=0;spacingLeft=6;points=[];portConstraint=eastwest;" parent="1" vertex="1">
          <mxGeometry x="-289.5" y="780" width="335" height="10" as="geometry" />
        </mxCell>
        <mxCell id="_PSoAdElaiYGUjvBhFve-74" value="" style="line;strokeWidth=1;rotatable=0;dashed=0;labelPosition=right;align=left;verticalAlign=middle;spacingTop=0;spacingLeft=6;points=[];portConstraint=eastwest;" parent="1" vertex="1">
          <mxGeometry x="-289.5" y="350" width="335" height="10" as="geometry" />
        </mxCell>
        <mxCell id="_PSoAdElaiYGUjvBhFve-75" value="" style="line;strokeWidth=1;rotatable=0;dashed=0;labelPosition=right;align=left;verticalAlign=middle;spacingTop=0;spacingLeft=6;points=[];portConstraint=eastwest;" parent="1" vertex="1">
          <mxGeometry x="-289.5" y="390" width="335" height="10" as="geometry" />
        </mxCell>
        <mxCell id="_PSoAdElaiYGUjvBhFve-76" value="" style="line;strokeWidth=1;rotatable=0;dashed=0;labelPosition=right;align=left;verticalAlign=middle;spacingTop=0;spacingLeft=6;points=[];portConstraint=eastwest;" parent="1" vertex="1">
          <mxGeometry x="-289.5" y="430" width="335" height="10" as="geometry" />
        </mxCell>
        <mxCell id="_PSoAdElaiYGUjvBhFve-82" value="Buscar cliente..." style="rounded=1;whiteSpace=wrap;html=1;" parent="1" vertex="1">
          <mxGeometry x="-280" y="245" width="200" height="35" as="geometry" />
        </mxCell>
        <mxCell id="_PSoAdElaiYGUjvBhFve-87" value="" style="rounded=1;whiteSpace=wrap;html=1;" parent="1" vertex="1">
          <mxGeometry x="-50" y="245" width="50" height="35" as="geometry" />
        </mxCell>
        <mxCell id="_PSoAdElaiYGUjvBhFve-88" value="" style="sketch=0;outlineConnect=0;fontColor=#232F3E;gradientColor=none;fillColor=#232F3D;strokeColor=none;dashed=0;verticalLabelPosition=bottom;verticalAlign=top;align=center;html=1;fontSize=12;fontStyle=0;aspect=fixed;pointerEvents=1;shape=mxgraph.aws4.magnifying_glass_2;" parent="1" vertex="1">
          <mxGeometry x="-40" y="247.5" width="30" height="30" as="geometry" />
        </mxCell>
        <mxCell id="_PSoAdElaiYGUjvBhFve-91" value="" style="html=1;verticalLabelPosition=bottom;align=center;labelBackgroundColor=#ffffff;verticalAlign=top;strokeWidth=2;strokeColor=#0080F0;shadow=0;dashed=0;shape=mxgraph.ios7.icons.trashcan;" parent="1" vertex="1">
          <mxGeometry x="10" y="405" width="20" height="20" as="geometry" />
        </mxCell>
        <mxCell id="_PSoAdElaiYGUjvBhFve-92" value="" style="html=1;verticalLabelPosition=bottom;align=center;labelBackgroundColor=#ffffff;verticalAlign=top;strokeWidth=2;strokeColor=#0080F0;shadow=0;dashed=0;shape=mxgraph.ios7.icons.trashcan;" parent="1" vertex="1">
          <mxGeometry x="10" y="445" width="20" height="20" as="geometry" />
        </mxCell>
        <mxCell id="_PSoAdElaiYGUjvBhFve-93" value="" style="html=1;verticalLabelPosition=bottom;align=center;labelBackgroundColor=#ffffff;verticalAlign=top;strokeWidth=2;strokeColor=#0080F0;shadow=0;dashed=0;shape=mxgraph.ios7.icons.trashcan;" parent="1" vertex="1">
          <mxGeometry x="10" y="600" width="20" height="20" as="geometry" />
        </mxCell>
        <mxCell id="_PSoAdElaiYGUjvBhFve-94" value="" style="html=1;verticalLabelPosition=bottom;align=center;labelBackgroundColor=#ffffff;verticalAlign=top;strokeWidth=2;strokeColor=#0080F0;shadow=0;dashed=0;shape=mxgraph.ios7.icons.trashcan;" parent="1" vertex="1">
          <mxGeometry x="10" y="565" width="20" height="20" as="geometry" />
        </mxCell>
        <mxCell id="_PSoAdElaiYGUjvBhFve-96" value="" style="html=1;verticalLabelPosition=bottom;align=center;labelBackgroundColor=#ffffff;verticalAlign=top;strokeWidth=2;strokeColor=#0080F0;shadow=0;dashed=0;shape=mxgraph.ios7.icons.trashcan;" parent="1" vertex="1">
          <mxGeometry x="10" y="490" width="20" height="20" as="geometry" />
        </mxCell>
        <mxCell id="_PSoAdElaiYGUjvBhFve-97" value="" style="html=1;verticalLabelPosition=bottom;align=center;labelBackgroundColor=#ffffff;verticalAlign=top;strokeWidth=2;strokeColor=#0080F0;shadow=0;dashed=0;shape=mxgraph.ios7.icons.trashcan;" parent="1" vertex="1">
          <mxGeometry x="10" y="530" width="20" height="20" as="geometry" />
        </mxCell>
        <mxCell id="_PSoAdElaiYGUjvBhFve-98" value="" style="html=1;verticalLabelPosition=bottom;align=center;labelBackgroundColor=#ffffff;verticalAlign=top;strokeWidth=2;strokeColor=#0080F0;shadow=0;dashed=0;shape=mxgraph.ios7.icons.trashcan;" parent="1" vertex="1">
          <mxGeometry x="10" y="720" width="20" height="20" as="geometry" />
        </mxCell>
        <mxCell id="_PSoAdElaiYGUjvBhFve-99" value="" style="html=1;verticalLabelPosition=bottom;align=center;labelBackgroundColor=#ffffff;verticalAlign=top;strokeWidth=2;strokeColor=#0080F0;shadow=0;dashed=0;shape=mxgraph.ios7.icons.trashcan;" parent="1" vertex="1">
          <mxGeometry x="10" y="760" width="20" height="20" as="geometry" />
        </mxCell>
        <mxCell id="TFMKvmCg46DmoSamP-R1-3" value="" style="edgeStyle=orthogonalEdgeStyle;rounded=0;orthogonalLoop=1;jettySize=auto;html=1;entryX=0.094;entryY=-0.006;entryDx=0;entryDy=0;entryPerimeter=0;" parent="1" source="_PSoAdElaiYGUjvBhFve-100" target="sr1Ox7DKESV_uyKodknV-1" edge="1">
          <mxGeometry relative="1" as="geometry">
            <Array as="points">
              <mxPoint x="20" y="830" />
              <mxPoint x="-20" y="830" />
              <mxPoint x="-20" y="890" />
              <mxPoint x="136" y="890" />
            </Array>
          </mxGeometry>
        </mxCell>
        <mxCell id="_PSoAdElaiYGUjvBhFve-100" value="" style="html=1;verticalLabelPosition=bottom;align=center;labelBackgroundColor=#ffffff;verticalAlign=top;strokeWidth=2;strokeColor=#0080F0;shadow=0;dashed=0;shape=mxgraph.ios7.icons.trashcan;" parent="1" vertex="1">
          <mxGeometry x="10" y="790" width="20" height="20" as="geometry" />
        </mxCell>
        <mxCell id="_PSoAdElaiYGUjvBhFve-101" value="" style="html=1;verticalLabelPosition=bottom;align=center;labelBackgroundColor=#ffffff;verticalAlign=top;strokeWidth=2;strokeColor=#0080F0;shadow=0;dashed=0;shape=mxgraph.ios7.icons.trashcan;" parent="1" vertex="1">
          <mxGeometry x="10" y="330" width="20" height="20" as="geometry" />
        </mxCell>
        <mxCell id="_PSoAdElaiYGUjvBhFve-102" value="" style="html=1;verticalLabelPosition=bottom;align=center;labelBackgroundColor=#ffffff;verticalAlign=top;strokeWidth=2;strokeColor=#0080F0;shadow=0;dashed=0;shape=mxgraph.ios7.icons.trashcan;" parent="1" vertex="1">
          <mxGeometry x="10" y="370" width="20" height="20" as="geometry" />
        </mxCell>
        <mxCell id="_PSoAdElaiYGUjvBhFve-103" value="" style="html=1;verticalLabelPosition=bottom;align=center;labelBackgroundColor=#ffffff;verticalAlign=top;strokeWidth=2;strokeColor=#0080F0;shadow=0;dashed=0;shape=mxgraph.ios7.icons.trashcan;" parent="1" vertex="1">
          <mxGeometry x="10" y="640" width="20" height="20" as="geometry" />
        </mxCell>
        <mxCell id="_PSoAdElaiYGUjvBhFve-104" value="" style="html=1;verticalLabelPosition=bottom;align=center;labelBackgroundColor=#ffffff;verticalAlign=top;strokeWidth=2;strokeColor=#0080F0;shadow=0;dashed=0;shape=mxgraph.ios7.icons.trashcan;" parent="1" vertex="1">
          <mxGeometry x="10" y="680" width="20" height="20" as="geometry" />
        </mxCell>
        <mxCell id="_PSoAdElaiYGUjvBhFve-105" value="" style="sketch=0;outlineConnect=0;fontColor=#232F3E;gradientColor=none;fillColor=#7AA116;strokeColor=none;dashed=0;verticalLabelPosition=bottom;verticalAlign=top;align=center;html=1;fontSize=12;fontStyle=0;aspect=fixed;pointerEvents=1;shape=mxgraph.aws4.iot_over_the_air_update;" parent="1" vertex="1">
          <mxGeometry x="-25" y="680" width="24.76" height="20" as="geometry" />
        </mxCell>
        <mxCell id="_PSoAdElaiYGUjvBhFve-106" value="" style="sketch=0;outlineConnect=0;fontColor=#232F3E;gradientColor=none;fillColor=#7AA116;strokeColor=none;dashed=0;verticalLabelPosition=bottom;verticalAlign=top;align=center;html=1;fontSize=12;fontStyle=0;aspect=fixed;pointerEvents=1;shape=mxgraph.aws4.iot_over_the_air_update;" parent="1" vertex="1">
          <mxGeometry x="-25" y="600" width="24.76" height="20" as="geometry" />
        </mxCell>
        <mxCell id="_PSoAdElaiYGUjvBhFve-107" value="" style="sketch=0;outlineConnect=0;fontColor=#232F3E;gradientColor=none;fillColor=#7AA116;strokeColor=none;dashed=0;verticalLabelPosition=bottom;verticalAlign=top;align=center;html=1;fontSize=12;fontStyle=0;aspect=fixed;pointerEvents=1;shape=mxgraph.aws4.iot_over_the_air_update;" parent="1" vertex="1">
          <mxGeometry x="-25" y="640" width="24.76" height="20" as="geometry" />
        </mxCell>
        <mxCell id="_PSoAdElaiYGUjvBhFve-108" value="" style="sketch=0;outlineConnect=0;fontColor=#232F3E;gradientColor=none;fillColor=#7AA116;strokeColor=none;dashed=0;verticalLabelPosition=bottom;verticalAlign=top;align=center;html=1;fontSize=12;fontStyle=0;aspect=fixed;pointerEvents=1;shape=mxgraph.aws4.iot_over_the_air_update;" parent="1" vertex="1">
          <mxGeometry x="-25" y="565" width="24.76" height="20" as="geometry" />
        </mxCell>
        <mxCell id="_PSoAdElaiYGUjvBhFve-109" value="" style="sketch=0;outlineConnect=0;fontColor=#232F3E;gradientColor=none;fillColor=#7AA116;strokeColor=none;dashed=0;verticalLabelPosition=bottom;verticalAlign=top;align=center;html=1;fontSize=12;fontStyle=0;aspect=fixed;pointerEvents=1;shape=mxgraph.aws4.iot_over_the_air_update;" parent="1" vertex="1">
          <mxGeometry x="-25" y="530" width="24.76" height="20" as="geometry" />
        </mxCell>
        <mxCell id="_PSoAdElaiYGUjvBhFve-110" value="" style="sketch=0;outlineConnect=0;fontColor=#232F3E;gradientColor=none;fillColor=#7AA116;strokeColor=none;dashed=0;verticalLabelPosition=bottom;verticalAlign=top;align=center;html=1;fontSize=12;fontStyle=0;aspect=fixed;pointerEvents=1;shape=mxgraph.aws4.iot_over_the_air_update;" parent="1" vertex="1">
          <mxGeometry x="-25" y="485" width="24.76" height="20" as="geometry" />
        </mxCell>
        <mxCell id="_PSoAdElaiYGUjvBhFve-111" value="" style="sketch=0;outlineConnect=0;fontColor=#232F3E;gradientColor=none;fillColor=#7AA116;strokeColor=none;dashed=0;verticalLabelPosition=bottom;verticalAlign=top;align=center;html=1;fontSize=12;fontStyle=0;aspect=fixed;pointerEvents=1;shape=mxgraph.aws4.iot_over_the_air_update;" parent="1" vertex="1">
          <mxGeometry x="-25" y="445" width="24.76" height="20" as="geometry" />
        </mxCell>
        <mxCell id="_PSoAdElaiYGUjvBhFve-112" value="" style="sketch=0;outlineConnect=0;fontColor=#232F3E;gradientColor=none;fillColor=#7AA116;strokeColor=none;dashed=0;verticalLabelPosition=bottom;verticalAlign=top;align=center;html=1;fontSize=12;fontStyle=0;aspect=fixed;pointerEvents=1;shape=mxgraph.aws4.iot_over_the_air_update;" parent="1" vertex="1">
          <mxGeometry x="-25" y="405" width="24.76" height="20" as="geometry" />
        </mxCell>
        <mxCell id="_PSoAdElaiYGUjvBhFve-113" value="" style="sketch=0;outlineConnect=0;fontColor=#232F3E;gradientColor=none;fillColor=#7AA116;strokeColor=none;dashed=0;verticalLabelPosition=bottom;verticalAlign=top;align=center;html=1;fontSize=12;fontStyle=0;aspect=fixed;pointerEvents=1;shape=mxgraph.aws4.iot_over_the_air_update;" parent="1" vertex="1">
          <mxGeometry x="-25" y="365" width="24.76" height="20" as="geometry" />
        </mxCell>
        <mxCell id="_PSoAdElaiYGUjvBhFve-114" value="" style="sketch=0;outlineConnect=0;fontColor=#232F3E;gradientColor=none;fillColor=#7AA116;strokeColor=none;dashed=0;verticalLabelPosition=bottom;verticalAlign=top;align=center;html=1;fontSize=12;fontStyle=0;aspect=fixed;pointerEvents=1;shape=mxgraph.aws4.iot_over_the_air_update;" parent="1" vertex="1">
          <mxGeometry x="-25" y="330" width="24.76" height="20" as="geometry" />
        </mxCell>
        <mxCell id="_PSoAdElaiYGUjvBhFve-115" value="" style="sketch=0;outlineConnect=0;fontColor=#232F3E;gradientColor=none;fillColor=#7AA116;strokeColor=none;dashed=0;verticalLabelPosition=bottom;verticalAlign=top;align=center;html=1;fontSize=12;fontStyle=0;aspect=fixed;pointerEvents=1;shape=mxgraph.aws4.iot_over_the_air_update;" parent="1" vertex="1">
          <mxGeometry x="-25" y="720" width="24.76" height="20" as="geometry" />
        </mxCell>
        <mxCell id="_PSoAdElaiYGUjvBhFve-116" value="" style="sketch=0;outlineConnect=0;fontColor=#232F3E;gradientColor=none;fillColor=#7AA116;strokeColor=none;dashed=0;verticalLabelPosition=bottom;verticalAlign=top;align=center;html=1;fontSize=12;fontStyle=0;aspect=fixed;pointerEvents=1;shape=mxgraph.aws4.iot_over_the_air_update;" parent="1" vertex="1">
          <mxGeometry x="-25" y="760" width="24.76" height="20" as="geometry" />
        </mxCell>
        <mxCell id="_PSoAdElaiYGUjvBhFve-117" value="" style="sketch=0;outlineConnect=0;fontColor=#232F3E;gradientColor=none;fillColor=#7AA116;strokeColor=none;dashed=0;verticalLabelPosition=bottom;verticalAlign=top;align=center;html=1;fontSize=12;fontStyle=0;aspect=fixed;pointerEvents=1;shape=mxgraph.aws4.iot_over_the_air_update;" parent="1" vertex="1">
          <mxGeometry x="-25" y="790" width="24.76" height="20" as="geometry" />
        </mxCell>
        <mxCell id="_PSoAdElaiYGUjvBhFve-129" value="" style="endArrow=none;html=1;rounded=0;exitX=0.775;exitY=1;exitDx=0;exitDy=0;exitPerimeter=0;" parent="1" source="_PSoAdElaiYGUjvBhFve-47" edge="1">
          <mxGeometry width="50" height="50" relative="1" as="geometry">
            <mxPoint x="-30" y="640" as="sourcePoint" />
            <mxPoint x="-30" y="310" as="targetPoint" />
            <Array as="points" />
          </mxGeometry>
        </mxCell>
        <mxCell id="sr1Ox7DKESV_uyKodknV-1" value="" style="whiteSpace=wrap;html=1;aspect=fixed;rounded=1;" parent="1" vertex="1">
          <mxGeometry x="120" y="990" width="170" height="170" as="geometry" />
        </mxCell>
        <mxCell id="sr1Ox7DKESV_uyKodknV-2" value="&lt;font color=&quot;#ff0000&quot; style=&quot;font-size: 19px;&quot;&gt;!&lt;/font&gt;" style="strokeWidth=2;html=1;shape=mxgraph.flowchart.extract_or_measurement;whiteSpace=wrap;" parent="1" vertex="1">
          <mxGeometry x="185" y="1010" width="40" height="35" as="geometry" />
        </mxCell>
        <mxCell id="sr1Ox7DKESV_uyKodknV-3" value="&lt;font style=&quot;font-size: 15px;&quot;&gt;Tem certeza que deseja apagar ?&lt;/font&gt;" style="text;html=1;align=center;verticalAlign=middle;whiteSpace=wrap;rounded=0;" parent="1" vertex="1">
          <mxGeometry x="160" y="1060" width="90" height="30" as="geometry" />
        </mxCell>
        <mxCell id="kUcNxPQMu4zCRnQstgta-3" value="SIM" style="rounded=0;whiteSpace=wrap;html=1;fillColor=#60a917;fontColor=#ffffff;strokeColor=#2D7600;" parent="1" vertex="1">
          <mxGeometry x="145" y="1120" width="35" height="20" as="geometry" />
        </mxCell>
        <mxCell id="kUcNxPQMu4zCRnQstgta-4" value="NÃO" style="rounded=0;whiteSpace=wrap;html=1;fillColor=#a20025;fontColor=#ffffff;strokeColor=#6F0000;" parent="1" vertex="1">
          <mxGeometry x="224" y="1120" width="40" height="20" as="geometry" />
        </mxCell>
        <mxCell id="TFMKvmCg46DmoSamP-R1-4" value="" style="whiteSpace=wrap;html=1;aspect=fixed;rounded=1;" parent="1" vertex="1">
          <mxGeometry x="674" y="860" width="170" height="170" as="geometry" />
        </mxCell>
        <mxCell id="TFMKvmCg46DmoSamP-R1-5" value="&lt;font color=&quot;#ff0000&quot; style=&quot;font-size: 19px;&quot;&gt;!&lt;/font&gt;" style="strokeWidth=2;html=1;shape=mxgraph.flowchart.extract_or_measurement;whiteSpace=wrap;" parent="1" vertex="1">
          <mxGeometry x="739" y="880" width="40" height="35" as="geometry" />
        </mxCell>
        <mxCell id="TFMKvmCg46DmoSamP-R1-6" value="&lt;font style=&quot;font-size: 15px;&quot;&gt;Tem certeza que deseja salvar?&lt;/font&gt;" style="text;html=1;align=center;verticalAlign=middle;whiteSpace=wrap;rounded=0;" parent="1" vertex="1">
          <mxGeometry x="714" y="930" width="90" height="30" as="geometry" />
        </mxCell>
        <mxCell id="TFMKvmCg46DmoSamP-R1-7" value="SIM" style="rounded=0;whiteSpace=wrap;html=1;fillColor=#60a917;fontColor=#ffffff;strokeColor=#2D7600;" parent="1" vertex="1">
          <mxGeometry x="699" y="990" width="35" height="20" as="geometry" />
        </mxCell>
        <mxCell id="TFMKvmCg46DmoSamP-R1-8" value="NÃO" style="rounded=0;whiteSpace=wrap;html=1;fillColor=#a20025;fontColor=#ffffff;strokeColor=#6F0000;" parent="1" vertex="1">
          <mxGeometry x="778" y="990" width="40" height="20" as="geometry" />
        </mxCell>
        <mxCell id="TFMKvmCg46DmoSamP-R1-10" value="" style="whiteSpace=wrap;html=1;aspect=fixed;rounded=1;" parent="1" vertex="1">
          <mxGeometry x="860" y="860" width="130" height="130" as="geometry" />
        </mxCell>
        <mxCell id="TFMKvmCg46DmoSamP-R1-11" value="&lt;font color=&quot;#ff0000&quot; style=&quot;font-size: 19px;&quot;&gt;!&lt;/font&gt;" style="strokeWidth=2;html=1;shape=mxgraph.flowchart.extract_or_measurement;whiteSpace=wrap;" parent="1" vertex="1">
          <mxGeometry x="905" y="890" width="40" height="35" as="geometry" />
        </mxCell>
        <mxCell id="TFMKvmCg46DmoSamP-R1-12" value="&lt;span style=&quot;font-size: 15px;&quot;&gt;Dados incorretos&lt;/span&gt;" style="text;html=1;align=center;verticalAlign=middle;whiteSpace=wrap;rounded=0;" parent="1" vertex="1">
          <mxGeometry x="880" y="940" width="90" height="30" as="geometry" />
        </mxCell>
        <mxCell id="PJ3HGXQ0slGfCvu4Q4hh-1" value="&lt;font style=&quot;font-size: 15px;&quot;&gt;Josefina...&lt;/font&gt;" style="text;html=1;align=center;verticalAlign=middle;whiteSpace=wrap;rounded=0;" parent="1" vertex="1">
          <mxGeometry x="-270" y="325" width="60" height="30" as="geometry" />
        </mxCell>
        <mxCell id="PJ3HGXQ0slGfCvu4Q4hh-2" value="&lt;br&gt;&lt;span style=&quot;font-size: 15px; text-align: center;&quot;&gt;Josefina...&lt;/span&gt;" style="text;whiteSpace=wrap;html=1;" parent="1" vertex="1">
          <mxGeometry x="-280" y="350" width="100" height="40" as="geometry" />
        </mxCell>
        <mxCell id="PJ3HGXQ0slGfCvu4Q4hh-4" style="edgeStyle=orthogonalEdgeStyle;rounded=0;orthogonalLoop=1;jettySize=auto;html=1;exitX=0.5;exitY=1;exitDx=0;exitDy=0;" parent="1" edge="1">
          <mxGeometry relative="1" as="geometry">
            <mxPoint x="-250" y="430" as="sourcePoint" />
            <mxPoint x="-250" y="430" as="targetPoint" />
          </mxGeometry>
        </mxCell>
        <mxCell id="L_angLtkKE2Yx2q2_W4K-1" value="" style="whiteSpace=wrap;html=1;aspect=fixed;rounded=1;" parent="1" vertex="1">
          <mxGeometry x="2700" y="820" width="170" height="170" as="geometry" />
        </mxCell>
        <mxCell id="L_angLtkKE2Yx2q2_W4K-2" value="&lt;font color=&quot;#ff0000&quot; style=&quot;font-size: 19px;&quot;&gt;!&lt;/font&gt;" style="strokeWidth=2;html=1;shape=mxgraph.flowchart.extract_or_measurement;whiteSpace=wrap;" parent="1" vertex="1">
          <mxGeometry x="2765" y="835" width="40" height="35" as="geometry" />
        </mxCell>
        <mxCell id="L_angLtkKE2Yx2q2_W4K-3" value="&lt;font style=&quot;font-size: 15px;&quot;&gt;Tem certeza que deseja apagar ?&lt;/font&gt;" style="text;html=1;align=center;verticalAlign=middle;whiteSpace=wrap;rounded=0;" parent="1" vertex="1">
          <mxGeometry x="2740" y="885" width="90" height="35" as="geometry" />
        </mxCell>
        <mxCell id="L_angLtkKE2Yx2q2_W4K-4" value="SIM" style="rounded=0;whiteSpace=wrap;html=1;fillColor=#60a917;fontColor=#ffffff;strokeColor=#2D7600;" parent="1" vertex="1">
          <mxGeometry x="2725" y="945" width="35" height="20" as="geometry" />
        </mxCell>
        <mxCell id="L_angLtkKE2Yx2q2_W4K-5" value="NÃO" style="rounded=0;whiteSpace=wrap;html=1;fillColor=#a20025;fontColor=#ffffff;strokeColor=#6F0000;" parent="1" vertex="1">
          <mxGeometry x="2804" y="945" width="40" height="20" as="geometry" />
        </mxCell>
        <mxCell id="L_angLtkKE2Yx2q2_W4K-6" value="" style="whiteSpace=wrap;html=1;aspect=fixed;rounded=1;" parent="1" vertex="1">
          <mxGeometry x="1400" y="805" width="170" height="170" as="geometry" />
        </mxCell>
        <mxCell id="L_angLtkKE2Yx2q2_W4K-7" value="&lt;font color=&quot;#ff0000&quot; style=&quot;font-size: 19px;&quot;&gt;!&lt;/font&gt;" style="strokeWidth=2;html=1;shape=mxgraph.flowchart.extract_or_measurement;whiteSpace=wrap;" parent="1" vertex="1">
          <mxGeometry x="1465" y="825" width="40" height="35" as="geometry" />
        </mxCell>
        <mxCell id="L_angLtkKE2Yx2q2_W4K-8" value="&lt;font style=&quot;font-size: 15px;&quot;&gt;Tem certeza que deseja salvar?&lt;/font&gt;" style="text;html=1;align=center;verticalAlign=middle;whiteSpace=wrap;rounded=0;" parent="1" vertex="1">
          <mxGeometry x="1440" y="875" width="90" height="30" as="geometry" />
        </mxCell>
        <mxCell id="L_angLtkKE2Yx2q2_W4K-9" value="SIM" style="rounded=0;whiteSpace=wrap;html=1;fillColor=#60a917;fontColor=#ffffff;strokeColor=#2D7600;" parent="1" vertex="1">
          <mxGeometry x="1425" y="935" width="35" height="20" as="geometry" />
        </mxCell>
        <mxCell id="L_angLtkKE2Yx2q2_W4K-10" value="NÃO" style="rounded=0;whiteSpace=wrap;html=1;fillColor=#a20025;fontColor=#ffffff;strokeColor=#6F0000;" parent="1" vertex="1">
          <mxGeometry x="1504" y="935" width="40" height="20" as="geometry" />
        </mxCell>
        <mxCell id="L_angLtkKE2Yx2q2_W4K-11" value="" style="whiteSpace=wrap;html=1;aspect=fixed;rounded=1;" parent="1" vertex="1">
          <mxGeometry x="1425" y="980" width="130" height="130" as="geometry" />
        </mxCell>
        <mxCell id="L_angLtkKE2Yx2q2_W4K-12" value="&lt;font color=&quot;#ff0000&quot; style=&quot;font-size: 19px;&quot;&gt;!&lt;/font&gt;" style="strokeWidth=2;html=1;shape=mxgraph.flowchart.extract_or_measurement;whiteSpace=wrap;" parent="1" vertex="1">
          <mxGeometry x="1470" y="1010" width="40" height="35" as="geometry" />
        </mxCell>
        <mxCell id="L_angLtkKE2Yx2q2_W4K-13" value="&lt;span style=&quot;font-size: 15px;&quot;&gt;Dados incorretos&lt;/span&gt;" style="text;html=1;align=center;verticalAlign=middle;whiteSpace=wrap;rounded=0;" parent="1" vertex="1">
          <mxGeometry x="1445" y="1060" width="90" height="30" as="geometry" />
        </mxCell>
        <mxCell id="ThAtgbQkbA6toOc30l2G-4" value="" style="shape=ext;double=1;rounded=0;whiteSpace=wrap;html=1;fillColor=#dae8fc;strokeColor=#6c8ebf;shadow=0;glass=1;arcSize=13;gradientColor=#7ea6e0;" parent="1" vertex="1">
          <mxGeometry x="1863" y="190" width="897" height="590" as="geometry" />
        </mxCell>
        <mxCell id="ThAtgbQkbA6toOc30l2G-5" value="Clientes" style="text;strokeColor=none;fillColor=none;html=1;fontSize=24;fontStyle=1;verticalAlign=middle;align=center;" parent="1" vertex="1">
          <mxGeometry x="2261.5" y="205" width="100" height="40" as="geometry" />
        </mxCell>
        <mxCell id="ThAtgbQkbA6toOc30l2G-6" value="" style="shape=link;html=1;rounded=0;" parent="1" edge="1">
          <mxGeometry width="100" relative="1" as="geometry">
            <mxPoint x="2170" y="244" as="sourcePoint" />
            <mxPoint x="2450" y="244" as="targetPoint" />
          </mxGeometry>
        </mxCell>
        <mxCell id="ThAtgbQkbA6toOc30l2G-7" value="" style="rounded=1;whiteSpace=wrap;html=1;" parent="1" vertex="1">
          <mxGeometry x="1910.5" y="346.25" width="769.5" height="397.5" as="geometry" />
        </mxCell>
        <mxCell id="ThAtgbQkbA6toOc30l2G-59" value="" style="edgeStyle=orthogonalEdgeStyle;rounded=0;orthogonalLoop=1;jettySize=auto;html=1;entryX=1;entryY=0.902;entryDx=0;entryDy=0;entryPerimeter=0;" parent="1" source="ThAtgbQkbA6toOc30l2G-8" target="q-BJkI9HlPdHQNUmnqpX-1" edge="1">
          <mxGeometry relative="1" as="geometry">
            <Array as="points">
              <mxPoint x="2715" y="800" />
              <mxPoint x="1670" y="800" />
              <mxPoint x="1670" y="732" />
            </Array>
          </mxGeometry>
        </mxCell>
        <mxCell id="ThAtgbQkbA6toOc30l2G-8" value="&lt;font style=&quot;font-size: 25px;&quot;&gt;+&lt;/font&gt;" style="rounded=1;whiteSpace=wrap;html=1;fillColor=#647687;strokeColor=#314354;fontColor=#ffffff;" parent="1" vertex="1">
          <mxGeometry x="2700" y="730" width="30" height="30" as="geometry" />
        </mxCell>
        <mxCell id="ThAtgbQkbA6toOc30l2G-9" value="" style="line;strokeWidth=1;rotatable=0;dashed=0;labelPosition=right;align=left;verticalAlign=middle;spacingTop=0;spacingLeft=6;points=[];portConstraint=eastwest;" parent="1" vertex="1">
          <mxGeometry x="1910.5" y="515" width="769.5" height="10" as="geometry" />
        </mxCell>
        <mxCell id="ThAtgbQkbA6toOc30l2G-10" value="" style="line;strokeWidth=1;rotatable=0;dashed=0;labelPosition=right;align=left;verticalAlign=middle;spacingTop=0;spacingLeft=6;points=[];portConstraint=eastwest;" parent="1" vertex="1">
          <mxGeometry x="1910.5" y="555" width="769.5" height="10" as="geometry" />
        </mxCell>
        <mxCell id="ThAtgbQkbA6toOc30l2G-11" value="" style="line;strokeWidth=1;rotatable=0;dashed=0;labelPosition=right;align=left;verticalAlign=middle;spacingTop=0;spacingLeft=6;points=[];portConstraint=eastwest;" parent="1" vertex="1">
          <mxGeometry x="1910.5" y="595" width="769.5" height="10" as="geometry" />
        </mxCell>
        <mxCell id="ThAtgbQkbA6toOc30l2G-12" value="" style="line;strokeWidth=1;rotatable=0;dashed=0;labelPosition=right;align=left;verticalAlign=middle;spacingTop=0;spacingLeft=6;points=[];portConstraint=eastwest;" parent="1" vertex="1">
          <mxGeometry x="1910.5" y="630" width="769.5" height="10" as="geometry" />
        </mxCell>
        <mxCell id="ThAtgbQkbA6toOc30l2G-13" value="" style="line;strokeWidth=1;rotatable=0;dashed=0;labelPosition=right;align=left;verticalAlign=middle;spacingTop=0;spacingLeft=6;points=[];portConstraint=eastwest;" parent="1" vertex="1">
          <mxGeometry x="1910.5" y="665" width="769.5" height="10" as="geometry" />
        </mxCell>
        <mxCell id="ThAtgbQkbA6toOc30l2G-14" value="" style="line;strokeWidth=1;rotatable=0;dashed=0;labelPosition=right;align=left;verticalAlign=middle;spacingTop=0;spacingLeft=6;points=[];portConstraint=eastwest;" parent="1" vertex="1">
          <mxGeometry x="1910.5" y="705" width="759.5" height="10" as="geometry" />
        </mxCell>
        <mxCell id="ThAtgbQkbA6toOc30l2G-18" value="" style="line;strokeWidth=1;rotatable=0;dashed=0;labelPosition=right;align=left;verticalAlign=middle;spacingTop=0;spacingLeft=6;points=[];portConstraint=eastwest;" parent="1" vertex="1">
          <mxGeometry x="1910" y="395" width="770" height="10" as="geometry" />
        </mxCell>
        <mxCell id="ThAtgbQkbA6toOc30l2G-19" value="" style="line;strokeWidth=1;rotatable=0;dashed=0;labelPosition=right;align=left;verticalAlign=middle;spacingTop=0;spacingLeft=6;points=[];portConstraint=eastwest;" parent="1" vertex="1">
          <mxGeometry x="1910.5" y="435" width="769.5" height="10" as="geometry" />
        </mxCell>
        <mxCell id="ThAtgbQkbA6toOc30l2G-20" value="" style="line;strokeWidth=1;rotatable=0;dashed=0;labelPosition=right;align=left;verticalAlign=middle;spacingTop=0;spacingLeft=6;points=[];portConstraint=eastwest;" parent="1" vertex="1">
          <mxGeometry x="1910.5" y="475" width="769.5" height="10" as="geometry" />
        </mxCell>
        <mxCell id="ThAtgbQkbA6toOc30l2G-21" value="Buscar cliente..." style="rounded=1;whiteSpace=wrap;html=1;" parent="1" vertex="1">
          <mxGeometry x="1920" y="290" width="670" height="35" as="geometry" />
        </mxCell>
        <mxCell id="ThAtgbQkbA6toOc30l2G-22" value="" style="rounded=1;whiteSpace=wrap;html=1;" parent="1" vertex="1">
          <mxGeometry x="2610" y="290" width="50" height="35" as="geometry" />
        </mxCell>
        <mxCell id="ThAtgbQkbA6toOc30l2G-23" value="" style="sketch=0;outlineConnect=0;fontColor=#232F3E;gradientColor=none;fillColor=#232F3D;strokeColor=none;dashed=0;verticalLabelPosition=bottom;verticalAlign=top;align=center;html=1;fontSize=12;fontStyle=0;aspect=fixed;pointerEvents=1;shape=mxgraph.aws4.magnifying_glass_2;" parent="1" vertex="1">
          <mxGeometry x="2620" y="292.5" width="30" height="30" as="geometry" />
        </mxCell>
        <mxCell id="ThAtgbQkbA6toOc30l2G-24" value="" style="html=1;verticalLabelPosition=bottom;align=center;labelBackgroundColor=#ffffff;verticalAlign=top;strokeWidth=2;strokeColor=#0080F0;shadow=0;dashed=0;shape=mxgraph.ios7.icons.trashcan;" parent="1" vertex="1">
          <mxGeometry x="2630" y="445" width="20" height="20" as="geometry" />
        </mxCell>
        <mxCell id="ThAtgbQkbA6toOc30l2G-25" value="" style="html=1;verticalLabelPosition=bottom;align=center;labelBackgroundColor=#ffffff;verticalAlign=top;strokeWidth=2;strokeColor=#0080F0;shadow=0;dashed=0;shape=mxgraph.ios7.icons.trashcan;" parent="1" vertex="1">
          <mxGeometry x="2630" y="490" width="20" height="20" as="geometry" />
        </mxCell>
        <mxCell id="ThAtgbQkbA6toOc30l2G-26" value="" style="html=1;verticalLabelPosition=bottom;align=center;labelBackgroundColor=#ffffff;verticalAlign=top;strokeWidth=2;strokeColor=#0080F0;shadow=0;dashed=0;shape=mxgraph.ios7.icons.trashcan;" parent="1" vertex="1">
          <mxGeometry x="2630" y="642.62" width="20" height="20" as="geometry" />
        </mxCell>
        <mxCell id="ThAtgbQkbA6toOc30l2G-27" value="" style="html=1;verticalLabelPosition=bottom;align=center;labelBackgroundColor=#ffffff;verticalAlign=top;strokeWidth=2;strokeColor=#0080F0;shadow=0;dashed=0;shape=mxgraph.ios7.icons.trashcan;" parent="1" vertex="1">
          <mxGeometry x="2630" y="570" width="20" height="20" as="geometry" />
        </mxCell>
        <mxCell id="ThAtgbQkbA6toOc30l2G-28" value="" style="html=1;verticalLabelPosition=bottom;align=center;labelBackgroundColor=#ffffff;verticalAlign=top;strokeWidth=2;strokeColor=#0080F0;shadow=0;dashed=0;shape=mxgraph.ios7.icons.trashcan;" parent="1" vertex="1">
          <mxGeometry x="2630" y="530" width="20" height="20" as="geometry" />
        </mxCell>
        <mxCell id="ThAtgbQkbA6toOc30l2G-29" value="" style="html=1;verticalLabelPosition=bottom;align=center;labelBackgroundColor=#ffffff;verticalAlign=top;strokeWidth=2;strokeColor=#0080F0;shadow=0;dashed=0;shape=mxgraph.ios7.icons.trashcan;" parent="1" vertex="1">
          <mxGeometry x="2630" y="610" width="20" height="20" as="geometry" />
        </mxCell>
        <mxCell id="ThAtgbQkbA6toOc30l2G-30" value="" style="html=1;verticalLabelPosition=bottom;align=center;labelBackgroundColor=#ffffff;verticalAlign=top;strokeWidth=2;strokeColor=#0080F0;shadow=0;dashed=0;shape=mxgraph.ios7.icons.trashcan;" parent="1" vertex="1">
          <mxGeometry x="2630" y="680" width="20" height="20" as="geometry" />
        </mxCell>
        <mxCell id="ThAtgbQkbA6toOc30l2G-58" value="" style="edgeStyle=orthogonalEdgeStyle;rounded=0;orthogonalLoop=1;jettySize=auto;html=1;" parent="1" source="ThAtgbQkbA6toOc30l2G-31" edge="1">
          <mxGeometry relative="1" as="geometry">
            <mxPoint x="2700" y="918" as="targetPoint" />
            <Array as="points">
              <mxPoint x="2640" y="918" />
            </Array>
          </mxGeometry>
        </mxCell>
        <mxCell id="ThAtgbQkbA6toOc30l2G-31" value="" style="html=1;verticalLabelPosition=bottom;align=center;labelBackgroundColor=#ffffff;verticalAlign=top;strokeWidth=2;strokeColor=#0080F0;shadow=0;dashed=0;shape=mxgraph.ios7.icons.trashcan;" parent="1" vertex="1">
          <mxGeometry x="2630" y="715" width="20" height="20" as="geometry" />
        </mxCell>
        <mxCell id="ThAtgbQkbA6toOc30l2G-33" value="" style="html=1;verticalLabelPosition=bottom;align=center;labelBackgroundColor=#ffffff;verticalAlign=top;strokeWidth=2;strokeColor=#0080F0;shadow=0;dashed=0;shape=mxgraph.ios7.icons.trashcan;" parent="1" vertex="1">
          <mxGeometry x="2630" y="375" width="20" height="20" as="geometry" />
        </mxCell>
        <mxCell id="ThAtgbQkbA6toOc30l2G-34" value="" style="html=1;verticalLabelPosition=bottom;align=center;labelBackgroundColor=#ffffff;verticalAlign=top;strokeWidth=2;strokeColor=#0080F0;shadow=0;dashed=0;shape=mxgraph.ios7.icons.trashcan;" parent="1" vertex="1">
          <mxGeometry x="2630" y="410" width="20" height="20" as="geometry" />
        </mxCell>
        <mxCell id="ThAtgbQkbA6toOc30l2G-37" value="" style="sketch=0;outlineConnect=0;fontColor=#232F3E;gradientColor=none;fillColor=#7AA116;strokeColor=none;dashed=0;verticalLabelPosition=bottom;verticalAlign=top;align=center;html=1;fontSize=12;fontStyle=0;aspect=fixed;pointerEvents=1;shape=mxgraph.aws4.iot_over_the_air_update;direction=east;" parent="1" vertex="1">
          <mxGeometry x="2590" y="715" width="24.76" height="20" as="geometry" />
        </mxCell>
        <mxCell id="ThAtgbQkbA6toOc30l2G-38" value="" style="sketch=0;outlineConnect=0;fontColor=#232F3E;gradientColor=none;fillColor=#7AA116;strokeColor=none;dashed=0;verticalLabelPosition=bottom;verticalAlign=top;align=center;html=1;fontSize=12;fontStyle=0;aspect=fixed;pointerEvents=1;shape=mxgraph.aws4.iot_over_the_air_update;" parent="1" vertex="1">
          <mxGeometry x="2590" y="610" width="24.76" height="20" as="geometry" />
        </mxCell>
        <mxCell id="ThAtgbQkbA6toOc30l2G-39" value="" style="sketch=0;outlineConnect=0;fontColor=#232F3E;gradientColor=none;fillColor=#7AA116;strokeColor=none;dashed=0;verticalLabelPosition=bottom;verticalAlign=top;align=center;html=1;fontSize=12;fontStyle=0;aspect=fixed;pointerEvents=1;shape=mxgraph.aws4.iot_over_the_air_update;rotation=5;" parent="1" vertex="1">
          <mxGeometry x="2590" y="675" width="24.76" height="20" as="geometry" />
        </mxCell>
        <mxCell id="ThAtgbQkbA6toOc30l2G-40" value="" style="sketch=0;outlineConnect=0;fontColor=#232F3E;gradientColor=none;fillColor=#7AA116;strokeColor=none;dashed=0;verticalLabelPosition=bottom;verticalAlign=top;align=center;html=1;fontSize=12;fontStyle=0;aspect=fixed;pointerEvents=1;shape=mxgraph.aws4.iot_over_the_air_update;" parent="1" vertex="1">
          <mxGeometry x="2590" y="570" width="24.76" height="20" as="geometry" />
        </mxCell>
        <mxCell id="ThAtgbQkbA6toOc30l2G-41" value="" style="sketch=0;outlineConnect=0;fontColor=#232F3E;gradientColor=none;fillColor=#7AA116;strokeColor=none;dashed=0;verticalLabelPosition=bottom;verticalAlign=top;align=center;html=1;fontSize=12;fontStyle=0;aspect=fixed;pointerEvents=1;shape=mxgraph.aws4.iot_over_the_air_update;direction=east;" parent="1" vertex="1">
          <mxGeometry x="2590" y="640" width="24.76" height="20" as="geometry" />
        </mxCell>
        <mxCell id="ThAtgbQkbA6toOc30l2G-42" value="" style="sketch=0;outlineConnect=0;fontColor=#232F3E;gradientColor=none;fillColor=#7AA116;strokeColor=none;dashed=0;verticalLabelPosition=bottom;verticalAlign=top;align=center;html=1;fontSize=12;fontStyle=0;aspect=fixed;pointerEvents=1;shape=mxgraph.aws4.iot_over_the_air_update;" parent="1" vertex="1">
          <mxGeometry x="2590" y="530" width="24.76" height="20" as="geometry" />
        </mxCell>
        <mxCell id="ThAtgbQkbA6toOc30l2G-43" value="" style="sketch=0;outlineConnect=0;fontColor=#232F3E;gradientColor=none;fillColor=#7AA116;strokeColor=none;dashed=0;verticalLabelPosition=bottom;verticalAlign=top;align=center;html=1;fontSize=12;fontStyle=0;aspect=fixed;pointerEvents=1;shape=mxgraph.aws4.iot_over_the_air_update;" parent="1" vertex="1">
          <mxGeometry x="2590" y="495" width="24.76" height="20" as="geometry" />
        </mxCell>
        <mxCell id="ThAtgbQkbA6toOc30l2G-44" value="" style="sketch=0;outlineConnect=0;fontColor=#232F3E;gradientColor=none;fillColor=#7AA116;strokeColor=none;dashed=0;verticalLabelPosition=bottom;verticalAlign=top;align=center;html=1;fontSize=12;fontStyle=0;aspect=fixed;pointerEvents=1;shape=mxgraph.aws4.iot_over_the_air_update;" parent="1" vertex="1">
          <mxGeometry x="2590" y="445" width="24.76" height="20" as="geometry" />
        </mxCell>
        <mxCell id="ThAtgbQkbA6toOc30l2G-45" value="" style="sketch=0;outlineConnect=0;fontColor=#232F3E;gradientColor=none;fillColor=#7AA116;strokeColor=none;dashed=0;verticalLabelPosition=bottom;verticalAlign=top;align=center;html=1;fontSize=12;fontStyle=0;aspect=fixed;pointerEvents=1;shape=mxgraph.aws4.iot_over_the_air_update;" parent="1" vertex="1">
          <mxGeometry x="2590" y="410" width="24.76" height="20" as="geometry" />
        </mxCell>
        <mxCell id="ThAtgbQkbA6toOc30l2G-46" value="" style="sketch=0;outlineConnect=0;fontColor=#232F3E;gradientColor=none;fillColor=#7AA116;strokeColor=none;dashed=0;verticalLabelPosition=bottom;verticalAlign=top;align=center;html=1;fontSize=12;fontStyle=0;aspect=fixed;pointerEvents=1;shape=mxgraph.aws4.iot_over_the_air_update;" parent="1" vertex="1">
          <mxGeometry x="2590" y="375" width="24.76" height="20" as="geometry" />
        </mxCell>
        <mxCell id="ThAtgbQkbA6toOc30l2G-50" value="" style="endArrow=none;html=1;rounded=0;" parent="1" edge="1">
          <mxGeometry width="50" height="50" relative="1" as="geometry">
            <mxPoint x="2560" y="740" as="sourcePoint" />
            <mxPoint x="2560" y="350" as="targetPoint" />
            <Array as="points" />
          </mxGeometry>
        </mxCell>
        <mxCell id="ThAtgbQkbA6toOc30l2G-51" value="&lt;font style=&quot;font-size: 15px;&quot;&gt;Josefina...&lt;/font&gt;" style="text;html=1;align=center;verticalAlign=middle;whiteSpace=wrap;rounded=0;" parent="1" vertex="1">
          <mxGeometry x="1930" y="370" width="60" height="30" as="geometry" />
        </mxCell>
        <mxCell id="ThAtgbQkbA6toOc30l2G-52" value="&lt;br&gt;&lt;span style=&quot;font-size: 15px; text-align: center;&quot;&gt;Josefina...&lt;/span&gt;" style="text;whiteSpace=wrap;html=1;" parent="1" vertex="1">
          <mxGeometry x="1920" y="395" width="100" height="40" as="geometry" />
        </mxCell>
        <mxCell id="ThAtgbQkbA6toOc30l2G-53" style="edgeStyle=orthogonalEdgeStyle;rounded=0;orthogonalLoop=1;jettySize=auto;html=1;exitX=0.5;exitY=1;exitDx=0;exitDy=0;" parent="1" edge="1">
          <mxGeometry relative="1" as="geometry">
            <mxPoint x="1950" y="475" as="sourcePoint" />
            <mxPoint x="1950" y="475" as="targetPoint" />
          </mxGeometry>
        </mxCell>
      </root>
    </mxGraphModel>
  </diagram>
  <diagram id="WNavyT_bF0-trUH3U7oi" name="Página-5">
    <mxGraphModel dx="2261" dy="782" grid="1" gridSize="10" guides="1" tooltips="1" connect="1" arrows="1" fold="1" page="1" pageScale="1" pageWidth="827" pageHeight="1169" math="0" shadow="0">
      <root>
        <mxCell id="0" />
        <mxCell id="1" parent="0" />
        <mxCell id="BwXhu-z4cHFkUHN0LULR-1" value="" style="shape=ext;double=1;rounded=1;whiteSpace=wrap;html=1;fillColor=#dae8fc;strokeColor=#6c8ebf;shadow=0;glass=1;arcSize=13;gradientColor=#7ea6e0;" parent="1" vertex="1">
          <mxGeometry x="-271" y="135" width="450" height="800" as="geometry" />
        </mxCell>
        <mxCell id="BwXhu-z4cHFkUHN0LULR-10" value="CADASTRAR-SE" style="shape=ext;double=1;rounded=1;whiteSpace=wrap;html=1;shadow=0;fillColor=#66B2FF;strokeColor=#330000;" parent="1" vertex="1">
          <mxGeometry x="-116" y="850" width="152" height="30" as="geometry" />
        </mxCell>
        <mxCell id="BwXhu-z4cHFkUHN0LULR-12" value="" style="shape=link;html=1;rounded=0;" parent="1" edge="1">
          <mxGeometry width="100" relative="1" as="geometry">
            <mxPoint x="-180" y="180" as="sourcePoint" />
            <mxPoint x="100" y="180" as="targetPoint" />
          </mxGeometry>
        </mxCell>
        <mxCell id="BwXhu-z4cHFkUHN0LULR-18" value="" style="endArrow=none;html=1;rounded=0;" parent="1" edge="1">
          <mxGeometry width="50" height="50" relative="1" as="geometry">
            <mxPoint x="-120.55000000000001" y="890" as="sourcePoint" />
            <mxPoint x="44" y="890" as="targetPoint" />
          </mxGeometry>
        </mxCell>
        <mxCell id="iG2b4Kx85xr08aRSxHFJ-3" value="Cadastrar fornecedor" style="text;strokeColor=none;fillColor=none;html=1;fontSize=24;fontStyle=1;verticalAlign=middle;align=center;" parent="1" vertex="1">
          <mxGeometry x="-96" y="140" width="100" height="40" as="geometry" />
        </mxCell>
        <mxCell id="iG2b4Kx85xr08aRSxHFJ-4" value="" style="shape=ext;double=1;rounded=1;whiteSpace=wrap;html=1;" parent="1" vertex="1">
          <mxGeometry x="-235" y="230" width="70" height="30" as="geometry" />
        </mxCell>
        <mxCell id="iG2b4Kx85xr08aRSxHFJ-5" value="" style="shape=ext;double=1;rounded=1;whiteSpace=wrap;html=1;" parent="1" vertex="1">
          <mxGeometry x="-141" y="230" width="100" height="30" as="geometry" />
        </mxCell>
        <mxCell id="iG2b4Kx85xr08aRSxHFJ-6" value="" style="shape=ext;double=1;rounded=1;whiteSpace=wrap;html=1;" parent="1" vertex="1">
          <mxGeometry x="-15" y="230" width="150" height="30" as="geometry" />
        </mxCell>
        <mxCell id="iG2b4Kx85xr08aRSxHFJ-7" value="Código:" style="text;html=1;align=center;verticalAlign=middle;whiteSpace=wrap;rounded=0;" parent="1" vertex="1">
          <mxGeometry x="-245" y="200" width="60" height="30" as="geometry" />
        </mxCell>
        <mxCell id="iG2b4Kx85xr08aRSxHFJ-8" value="CPF/CNPJ:" style="text;html=1;align=center;verticalAlign=middle;whiteSpace=wrap;rounded=0;" parent="1" vertex="1">
          <mxGeometry x="-16" y="200" width="60" height="30" as="geometry" />
        </mxCell>
        <mxCell id="iG2b4Kx85xr08aRSxHFJ-9" value="Razão Social:" style="text;html=1;align=center;verticalAlign=middle;whiteSpace=wrap;rounded=0;" parent="1" vertex="1">
          <mxGeometry x="-141" y="200" width="90" height="30" as="geometry" />
        </mxCell>
        <mxCell id="iG2b4Kx85xr08aRSxHFJ-10" value="" style="shape=ext;double=1;rounded=1;whiteSpace=wrap;html=1;" parent="1" vertex="1">
          <mxGeometry x="-235" y="310" width="110" height="30" as="geometry" />
        </mxCell>
        <mxCell id="Py8-zLNTl4ygqs_AsnGb-1" value="" style="shape=ext;double=1;rounded=1;whiteSpace=wrap;html=1;" parent="1" vertex="1">
          <mxGeometry x="-101" y="310" width="110" height="30" as="geometry" />
        </mxCell>
        <mxCell id="Py8-zLNTl4ygqs_AsnGb-3" value="" style="shape=ext;double=1;rounded=1;whiteSpace=wrap;html=1;" parent="1" vertex="1">
          <mxGeometry x="36" y="310" width="110" height="30" as="geometry" />
        </mxCell>
        <mxCell id="Py8-zLNTl4ygqs_AsnGb-5" value="Contato 1:" style="text;html=1;align=center;verticalAlign=middle;whiteSpace=wrap;rounded=0;" parent="1" vertex="1">
          <mxGeometry x="-235" y="280" width="60" height="30" as="geometry" />
        </mxCell>
        <mxCell id="Py8-zLNTl4ygqs_AsnGb-7" value="Contato 2:" style="text;html=1;align=center;verticalAlign=middle;whiteSpace=wrap;rounded=0;" parent="1" vertex="1">
          <mxGeometry x="-101" y="280" width="60" height="30" as="geometry" />
        </mxCell>
        <mxCell id="Py8-zLNTl4ygqs_AsnGb-9" value="Contato 3:" style="text;html=1;align=center;verticalAlign=middle;whiteSpace=wrap;rounded=0;" parent="1" vertex="1">
          <mxGeometry x="36" y="280" width="60" height="30" as="geometry" />
        </mxCell>
        <mxCell id="Py8-zLNTl4ygqs_AsnGb-11" value="" style="shape=ext;double=1;rounded=1;whiteSpace=wrap;html=1;" parent="1" vertex="1">
          <mxGeometry x="-235" y="380" width="110" height="30" as="geometry" />
        </mxCell>
        <mxCell id="Py8-zLNTl4ygqs_AsnGb-13" value="" style="shape=ext;double=1;rounded=1;whiteSpace=wrap;html=1;" parent="1" vertex="1">
          <mxGeometry x="-101" y="380" width="110" height="30" as="geometry" />
        </mxCell>
        <mxCell id="Py8-zLNTl4ygqs_AsnGb-15" value="" style="shape=ext;double=1;rounded=1;whiteSpace=wrap;html=1;" parent="1" vertex="1">
          <mxGeometry x="36" y="380" width="110" height="30" as="geometry" />
        </mxCell>
        <mxCell id="Py8-zLNTl4ygqs_AsnGb-17" value="Fone 1:" style="text;html=1;align=center;verticalAlign=middle;whiteSpace=wrap;rounded=0;" parent="1" vertex="1">
          <mxGeometry x="-235" y="350" width="60" height="30" as="geometry" />
        </mxCell>
        <mxCell id="Py8-zLNTl4ygqs_AsnGb-18" value="Fone 2:" style="text;html=1;align=center;verticalAlign=middle;whiteSpace=wrap;rounded=0;" parent="1" vertex="1">
          <mxGeometry x="-106" y="350" width="60" height="30" as="geometry" />
        </mxCell>
        <mxCell id="Py8-zLNTl4ygqs_AsnGb-19" value="Fone 3:" style="text;html=1;align=center;verticalAlign=middle;whiteSpace=wrap;rounded=0;" parent="1" vertex="1">
          <mxGeometry x="36" y="350" width="60" height="30" as="geometry" />
        </mxCell>
        <mxCell id="Py8-zLNTl4ygqs_AsnGb-20" value="" style="shape=ext;double=1;rounded=1;whiteSpace=wrap;html=1;" parent="1" vertex="1">
          <mxGeometry x="-234" y="450" width="380" height="30" as="geometry" />
        </mxCell>
        <mxCell id="Py8-zLNTl4ygqs_AsnGb-21" value="Email:" style="text;html=1;align=center;verticalAlign=middle;whiteSpace=wrap;rounded=0;" parent="1" vertex="1">
          <mxGeometry x="-235" y="420" width="60" height="30" as="geometry" />
        </mxCell>
        <mxCell id="Py8-zLNTl4ygqs_AsnGb-22" value="" style="shape=ext;double=1;rounded=1;whiteSpace=wrap;html=1;" parent="1" vertex="1">
          <mxGeometry x="-234" y="520" width="159" height="30" as="geometry" />
        </mxCell>
        <mxCell id="Py8-zLNTl4ygqs_AsnGb-23" value="Cidade:" style="text;html=1;align=center;verticalAlign=middle;whiteSpace=wrap;rounded=0;" parent="1" vertex="1">
          <mxGeometry x="-235" y="490" width="60" height="30" as="geometry" />
        </mxCell>
        <mxCell id="Py8-zLNTl4ygqs_AsnGb-24" value="" style="shape=ext;double=1;rounded=1;whiteSpace=wrap;html=1;" parent="1" vertex="1">
          <mxGeometry x="-63" y="520" width="159" height="30" as="geometry" />
        </mxCell>
        <mxCell id="Py8-zLNTl4ygqs_AsnGb-26" value="Bairro:" style="text;html=1;align=center;verticalAlign=middle;whiteSpace=wrap;rounded=0;" parent="1" vertex="1">
          <mxGeometry x="-70" y="490" width="60" height="30" as="geometry" />
        </mxCell>
        <mxCell id="Py8-zLNTl4ygqs_AsnGb-27" value="" style="shape=ext;double=1;rounded=1;whiteSpace=wrap;html=1;" parent="1" vertex="1">
          <mxGeometry x="105" y="520" width="41" height="30" as="geometry" />
        </mxCell>
        <mxCell id="Py8-zLNTl4ygqs_AsnGb-29" value="Nº:" style="text;html=1;align=center;verticalAlign=middle;whiteSpace=wrap;rounded=0;" parent="1" vertex="1">
          <mxGeometry x="86" y="490" width="60" height="30" as="geometry" />
        </mxCell>
        <mxCell id="gpuXZhoECQObQbuQT0o2-20" value="" style="shape=ext;double=1;rounded=1;whiteSpace=wrap;html=1;" parent="1" vertex="1">
          <mxGeometry x="-233.5" y="620" width="379" height="205" as="geometry" />
        </mxCell>
        <mxCell id="gpuXZhoECQObQbuQT0o2-21" value="Matéria Prima:" style="text;html=1;align=center;verticalAlign=middle;whiteSpace=wrap;rounded=0;" parent="1" vertex="1">
          <mxGeometry x="-226" y="585" width="110" height="30" as="geometry" />
        </mxCell>
        <mxCell id="gpuXZhoECQObQbuQT0o2-22" value="&lt;font style=&quot;font-size: 20px;&quot;&gt;+&lt;/font&gt;" style="rounded=1;whiteSpace=wrap;html=1;" parent="1" vertex="1">
          <mxGeometry x="96" y="580" width="30" height="30" as="geometry" />
        </mxCell>
        <mxCell id="gpuXZhoECQObQbuQT0o2-27" value="" style="line;strokeWidth=2;html=1;" parent="1" vertex="1">
          <mxGeometry x="-234" y="670" width="379" height="10" as="geometry" />
        </mxCell>
        <mxCell id="gpuXZhoECQObQbuQT0o2-28" value="" style="line;strokeWidth=2;html=1;" parent="1" vertex="1">
          <mxGeometry x="-230" y="717.5" width="375" height="10" as="geometry" />
        </mxCell>
        <mxCell id="gpuXZhoECQObQbuQT0o2-29" value="" style="line;strokeWidth=2;html=1;" parent="1" vertex="1">
          <mxGeometry x="-234.5" y="770" width="381" height="10" as="geometry" />
        </mxCell>
        <mxCell id="vkjxo4mMHkR7zIED31mD-1" value="     " style="shape=waypoint;sketch=0;fillStyle=solid;size=6;pointerEvents=1;points=[];fillColor=none;resizable=0;rotatable=0;perimeter=centerPerimeter;snapToPoint=1;" parent="1" vertex="1">
          <mxGeometry x="-215" y="640" width="20" height="20" as="geometry" />
        </mxCell>
        <mxCell id="vkjxo4mMHkR7zIED31mD-2" value="" style="shape=waypoint;sketch=0;fillStyle=solid;size=6;pointerEvents=1;points=[];fillColor=none;resizable=0;rotatable=0;perimeter=centerPerimeter;snapToPoint=1;" parent="1" vertex="1">
          <mxGeometry x="-215" y="690" width="20" height="20" as="geometry" />
        </mxCell>
        <mxCell id="vkjxo4mMHkR7zIED31mD-3" value="" style="shape=waypoint;sketch=0;fillStyle=solid;size=6;pointerEvents=1;points=[];fillColor=none;resizable=0;rotatable=0;perimeter=centerPerimeter;snapToPoint=1;" parent="1" vertex="1">
          <mxGeometry x="-215" y="740" width="20" height="20" as="geometry" />
        </mxCell>
        <mxCell id="vkjxo4mMHkR7zIED31mD-4" value="" style="shape=waypoint;sketch=0;fillStyle=solid;size=6;pointerEvents=1;points=[];fillColor=none;resizable=0;rotatable=0;perimeter=centerPerimeter;snapToPoint=1;" parent="1" vertex="1">
          <mxGeometry x="-215" y="790" width="20" height="20" as="geometry" />
        </mxCell>
        <mxCell id="qDdjBFGEMJkv1cvjC0Xu-1" value="" style="shape=ext;double=1;rounded=0;whiteSpace=wrap;html=1;fillColor=#dae8fc;strokeColor=#6c8ebf;glass=1;gradientColor=#7ea6e0;" parent="1" vertex="1">
          <mxGeometry x="270" y="200" width="890" height="590" as="geometry" />
        </mxCell>
        <mxCell id="qDdjBFGEMJkv1cvjC0Xu-4" value="Cadastrar fornecedor" style="text;strokeColor=none;fillColor=none;html=1;fontSize=24;fontStyle=1;verticalAlign=middle;align=center;" parent="1" vertex="1">
          <mxGeometry x="694" y="230" width="100" height="40" as="geometry" />
        </mxCell>
        <mxCell id="LxJhS8zJ9EyC36PlBQsA-41" value="CADASTRAR-SE" style="shape=ext;double=1;rounded=1;whiteSpace=wrap;html=1;shadow=0;fillColor=#66B2FF;strokeColor=#330000;" parent="1" vertex="1">
          <mxGeometry x="432.25" y="640" width="152" height="30" as="geometry" />
        </mxCell>
        <mxCell id="LxJhS8zJ9EyC36PlBQsA-42" value="" style="shape=link;html=1;rounded=0;" parent="1" edge="1">
          <mxGeometry width="100" relative="1" as="geometry">
            <mxPoint x="613.25" y="270" as="sourcePoint" />
            <mxPoint x="893.25" y="270" as="targetPoint" />
          </mxGeometry>
        </mxCell>
        <mxCell id="LxJhS8zJ9EyC36PlBQsA-43" value="" style="endArrow=none;html=1;rounded=0;" parent="1" edge="1">
          <mxGeometry width="50" height="50" relative="1" as="geometry">
            <mxPoint x="420.98" y="679" as="sourcePoint" />
            <mxPoint x="585.53" y="679" as="targetPoint" />
          </mxGeometry>
        </mxCell>
        <mxCell id="LxJhS8zJ9EyC36PlBQsA-44" value="" style="shape=ext;double=1;rounded=1;whiteSpace=wrap;html=1;" parent="1" vertex="1">
          <mxGeometry x="340" y="340" width="90" height="30" as="geometry" />
        </mxCell>
        <mxCell id="LxJhS8zJ9EyC36PlBQsA-45" value="" style="shape=ext;double=1;rounded=1;whiteSpace=wrap;html=1;" parent="1" vertex="1">
          <mxGeometry x="458.25" y="340" width="100" height="30" as="geometry" />
        </mxCell>
        <mxCell id="LxJhS8zJ9EyC36PlBQsA-46" value="" style="shape=ext;double=1;rounded=1;whiteSpace=wrap;html=1;" parent="1" vertex="1">
          <mxGeometry x="597.25" y="340" width="150" height="30" as="geometry" />
        </mxCell>
        <mxCell id="LxJhS8zJ9EyC36PlBQsA-47" value="Código:" style="text;html=1;align=center;verticalAlign=middle;whiteSpace=wrap;rounded=0;" parent="1" vertex="1">
          <mxGeometry x="340" y="310" width="60" height="30" as="geometry" />
        </mxCell>
        <mxCell id="LxJhS8zJ9EyC36PlBQsA-48" value="CPF/CNPJ:" style="text;html=1;align=center;verticalAlign=middle;whiteSpace=wrap;rounded=0;" parent="1" vertex="1">
          <mxGeometry x="608.25" y="310" width="60" height="30" as="geometry" />
        </mxCell>
        <mxCell id="LxJhS8zJ9EyC36PlBQsA-49" value="Razão Social:" style="text;html=1;align=center;verticalAlign=middle;whiteSpace=wrap;rounded=0;" parent="1" vertex="1">
          <mxGeometry x="458.25" y="310" width="90" height="30" as="geometry" />
        </mxCell>
        <mxCell id="LxJhS8zJ9EyC36PlBQsA-50" value="" style="shape=ext;double=1;rounded=1;whiteSpace=wrap;html=1;" parent="1" vertex="1">
          <mxGeometry x="340" y="420" width="170" height="30" as="geometry" />
        </mxCell>
        <mxCell id="LxJhS8zJ9EyC36PlBQsA-51" value="" style="shape=ext;double=1;rounded=1;whiteSpace=wrap;html=1;" parent="1" vertex="1">
          <mxGeometry x="530" y="420" width="180" height="30" as="geometry" />
        </mxCell>
        <mxCell id="LxJhS8zJ9EyC36PlBQsA-52" value="" style="shape=ext;double=1;rounded=1;whiteSpace=wrap;html=1;" parent="1" vertex="1">
          <mxGeometry x="730.25" y="420" width="179.75" height="30" as="geometry" />
        </mxCell>
        <mxCell id="LxJhS8zJ9EyC36PlBQsA-53" value="Contato 1:" style="text;html=1;align=center;verticalAlign=middle;whiteSpace=wrap;rounded=0;" parent="1" vertex="1">
          <mxGeometry x="340" y="390" width="60" height="30" as="geometry" />
        </mxCell>
        <mxCell id="LxJhS8zJ9EyC36PlBQsA-54" value="Contato 2:" style="text;html=1;align=center;verticalAlign=middle;whiteSpace=wrap;rounded=0;" parent="1" vertex="1">
          <mxGeometry x="537.25" y="390" width="60" height="30" as="geometry" />
        </mxCell>
        <mxCell id="LxJhS8zJ9EyC36PlBQsA-55" value="Contato 3:" style="text;html=1;align=center;verticalAlign=middle;whiteSpace=wrap;rounded=0;" parent="1" vertex="1">
          <mxGeometry x="734" y="390" width="60" height="30" as="geometry" />
        </mxCell>
        <mxCell id="LxJhS8zJ9EyC36PlBQsA-56" value="" style="shape=ext;double=1;rounded=1;whiteSpace=wrap;html=1;" parent="1" vertex="1">
          <mxGeometry x="340" y="490" width="170" height="30" as="geometry" />
        </mxCell>
        <mxCell id="LxJhS8zJ9EyC36PlBQsA-57" value="" style="shape=ext;double=1;rounded=1;whiteSpace=wrap;html=1;" parent="1" vertex="1">
          <mxGeometry x="530" y="490" width="180" height="30" as="geometry" />
        </mxCell>
        <mxCell id="LxJhS8zJ9EyC36PlBQsA-58" value="" style="shape=ext;double=1;rounded=1;whiteSpace=wrap;html=1;" parent="1" vertex="1">
          <mxGeometry x="730.25" y="490" width="179.75" height="30" as="geometry" />
        </mxCell>
        <mxCell id="LxJhS8zJ9EyC36PlBQsA-59" value="Fone 1:" style="text;html=1;align=center;verticalAlign=middle;whiteSpace=wrap;rounded=0;" parent="1" vertex="1">
          <mxGeometry x="340" y="460" width="60" height="30" as="geometry" />
        </mxCell>
        <mxCell id="LxJhS8zJ9EyC36PlBQsA-60" value="Fone 2:" style="text;html=1;align=center;verticalAlign=middle;whiteSpace=wrap;rounded=0;" parent="1" vertex="1">
          <mxGeometry x="530" y="460" width="60" height="30" as="geometry" />
        </mxCell>
        <mxCell id="LxJhS8zJ9EyC36PlBQsA-61" value="Fone 3:" style="text;html=1;align=center;verticalAlign=middle;whiteSpace=wrap;rounded=0;" parent="1" vertex="1">
          <mxGeometry x="730.25" y="460" width="60" height="30" as="geometry" />
        </mxCell>
        <mxCell id="LxJhS8zJ9EyC36PlBQsA-62" value="" style="shape=ext;double=1;rounded=1;whiteSpace=wrap;html=1;" parent="1" vertex="1">
          <mxGeometry x="760" y="340" width="380" height="30" as="geometry" />
        </mxCell>
        <mxCell id="LxJhS8zJ9EyC36PlBQsA-63" value="Email:" style="text;html=1;align=center;verticalAlign=middle;whiteSpace=wrap;rounded=0;" parent="1" vertex="1">
          <mxGeometry x="770" y="310" width="60" height="30" as="geometry" />
        </mxCell>
        <mxCell id="LxJhS8zJ9EyC36PlBQsA-64" value="" style="shape=ext;double=1;rounded=1;whiteSpace=wrap;html=1;" parent="1" vertex="1">
          <mxGeometry x="340" y="570" width="110" height="30" as="geometry" />
        </mxCell>
        <mxCell id="LxJhS8zJ9EyC36PlBQsA-65" value="Cidade:" style="text;html=1;align=center;verticalAlign=middle;whiteSpace=wrap;rounded=0;" parent="1" vertex="1">
          <mxGeometry x="340" y="530" width="60" height="30" as="geometry" />
        </mxCell>
        <mxCell id="LxJhS8zJ9EyC36PlBQsA-66" value="" style="shape=ext;double=1;rounded=1;whiteSpace=wrap;html=1;" parent="1" vertex="1">
          <mxGeometry x="480.5" y="570" width="159" height="30" as="geometry" />
        </mxCell>
        <mxCell id="LxJhS8zJ9EyC36PlBQsA-67" value="Bairro:" style="text;html=1;align=center;verticalAlign=middle;whiteSpace=wrap;rounded=0;" parent="1" vertex="1">
          <mxGeometry x="477.25" y="540" width="60" height="30" as="geometry" />
        </mxCell>
        <mxCell id="LxJhS8zJ9EyC36PlBQsA-68" value="" style="shape=ext;double=1;rounded=1;whiteSpace=wrap;html=1;" parent="1" vertex="1">
          <mxGeometry x="668.25" y="570" width="41" height="30" as="geometry" />
        </mxCell>
        <mxCell id="LxJhS8zJ9EyC36PlBQsA-69" value="Nº:" style="text;html=1;align=center;verticalAlign=middle;whiteSpace=wrap;rounded=0;" parent="1" vertex="1">
          <mxGeometry x="650" y="540" width="60" height="30" as="geometry" />
        </mxCell>
        <mxCell id="LxJhS8zJ9EyC36PlBQsA-70" value="" style="shape=ext;double=1;rounded=1;whiteSpace=wrap;html=1;" parent="1" vertex="1">
          <mxGeometry x="734" y="570" width="379" height="205" as="geometry" />
        </mxCell>
        <mxCell id="LxJhS8zJ9EyC36PlBQsA-71" value="Matéria Prima:" style="text;html=1;align=center;verticalAlign=middle;whiteSpace=wrap;rounded=0;" parent="1" vertex="1">
          <mxGeometry x="734" y="540" width="110" height="30" as="geometry" />
        </mxCell>
        <mxCell id="LxJhS8zJ9EyC36PlBQsA-72" value="&lt;font style=&quot;font-size: 20px;&quot;&gt;+&lt;/font&gt;" style="rounded=1;whiteSpace=wrap;html=1;" parent="1" vertex="1">
          <mxGeometry x="1100" y="530" width="30" height="30" as="geometry" />
        </mxCell>
        <mxCell id="LxJhS8zJ9EyC36PlBQsA-73" value="" style="line;strokeWidth=2;html=1;" parent="1" vertex="1">
          <mxGeometry x="734" y="620" width="379" height="10" as="geometry" />
        </mxCell>
        <mxCell id="LxJhS8zJ9EyC36PlBQsA-74" value="" style="line;strokeWidth=2;html=1;" parent="1" vertex="1">
          <mxGeometry x="736" y="670" width="375" height="10" as="geometry" />
        </mxCell>
        <mxCell id="LxJhS8zJ9EyC36PlBQsA-75" value="" style="line;strokeWidth=2;html=1;" parent="1" vertex="1">
          <mxGeometry x="734" y="717.5" width="381" height="10" as="geometry" />
        </mxCell>
        <mxCell id="LxJhS8zJ9EyC36PlBQsA-76" value="     " style="shape=waypoint;sketch=0;fillStyle=solid;size=6;pointerEvents=1;points=[];fillColor=none;resizable=0;rotatable=0;perimeter=centerPerimeter;snapToPoint=1;" parent="1" vertex="1">
          <mxGeometry x="750" y="590" width="20" height="20" as="geometry" />
        </mxCell>
        <mxCell id="LxJhS8zJ9EyC36PlBQsA-77" value="" style="shape=waypoint;sketch=0;fillStyle=solid;size=6;pointerEvents=1;points=[];fillColor=none;resizable=0;rotatable=0;perimeter=centerPerimeter;snapToPoint=1;" parent="1" vertex="1">
          <mxGeometry x="750.25" y="640" width="20" height="20" as="geometry" />
        </mxCell>
        <mxCell id="LxJhS8zJ9EyC36PlBQsA-78" value="" style="shape=waypoint;sketch=0;fillStyle=solid;size=6;pointerEvents=1;points=[];fillColor=none;resizable=0;rotatable=0;perimeter=centerPerimeter;snapToPoint=1;" parent="1" vertex="1">
          <mxGeometry x="750" y="690" width="20" height="20" as="geometry" />
        </mxCell>
        <mxCell id="LxJhS8zJ9EyC36PlBQsA-79" value="" style="shape=waypoint;sketch=0;fillStyle=solid;size=6;pointerEvents=1;points=[];fillColor=none;resizable=0;rotatable=0;perimeter=centerPerimeter;snapToPoint=1;" parent="1" vertex="1">
          <mxGeometry x="754" y="740" width="20" height="20" as="geometry" />
        </mxCell>
      </root>
    </mxGraphModel>
  </diagram>
  <diagram id="FekVxp7_sm6xnCLvO8N-" name="Página-6">
    <mxGraphModel dx="1434" dy="782" grid="1" gridSize="10" guides="1" tooltips="1" connect="1" arrows="1" fold="1" page="1" pageScale="1" pageWidth="827" pageHeight="1169" math="0" shadow="0">
      <root>
        <mxCell id="0" />
        <mxCell id="1" parent="0" />
        <mxCell id="xq-trUuBfw3_hCVQ8VGQ-1" value="" style="shape=ext;double=1;rounded=1;whiteSpace=wrap;html=1;fillColor=#dae8fc;strokeColor=#6c8ebf;shadow=0;glass=1;arcSize=13;gradientColor=#7ea6e0;" parent="1" vertex="1">
          <mxGeometry x="70" y="115" width="450" height="800" as="geometry" />
        </mxCell>
        <mxCell id="xq-trUuBfw3_hCVQ8VGQ-2" value="CADASTRAR-SE" style="shape=ext;double=1;rounded=1;whiteSpace=wrap;html=1;shadow=0;fillColor=#66B2FF;strokeColor=#330000;" parent="1" vertex="1">
          <mxGeometry x="214" y="770" width="152" height="30" as="geometry" />
        </mxCell>
        <mxCell id="xq-trUuBfw3_hCVQ8VGQ-3" value="" style="shape=link;html=1;rounded=0;" parent="1" edge="1">
          <mxGeometry width="100" relative="1" as="geometry">
            <mxPoint x="150" y="170" as="sourcePoint" />
            <mxPoint x="430" y="170" as="targetPoint" />
          </mxGeometry>
        </mxCell>
        <mxCell id="xq-trUuBfw3_hCVQ8VGQ-4" value="" style="endArrow=none;html=1;rounded=0;" parent="1" edge="1">
          <mxGeometry width="50" height="50" relative="1" as="geometry">
            <mxPoint x="201.72999999999993" y="820" as="sourcePoint" />
            <mxPoint x="366.28" y="820" as="targetPoint" />
          </mxGeometry>
        </mxCell>
        <mxCell id="xq-trUuBfw3_hCVQ8VGQ-5" value="Cadastro de Estoque" style="text;strokeColor=none;fillColor=none;html=1;fontSize=24;fontStyle=1;verticalAlign=middle;align=center;" parent="1" vertex="1">
          <mxGeometry x="234" y="130" width="100" height="40" as="geometry" />
        </mxCell>
        <mxCell id="xq-trUuBfw3_hCVQ8VGQ-6" value="" style="shape=ext;double=1;rounded=1;whiteSpace=wrap;html=1;" parent="1" vertex="1">
          <mxGeometry x="95" y="230" width="110" height="30" as="geometry" />
        </mxCell>
        <mxCell id="xq-trUuBfw3_hCVQ8VGQ-7" value="" style="shape=ext;double=1;rounded=1;whiteSpace=wrap;html=1;" parent="1" vertex="1">
          <mxGeometry x="366" y="230" width="119" height="30" as="geometry" />
        </mxCell>
        <mxCell id="xq-trUuBfw3_hCVQ8VGQ-8" value="" style="shape=ext;double=1;rounded=1;whiteSpace=wrap;html=1;" parent="1" vertex="1">
          <mxGeometry x="223" y="230" width="126" height="30" as="geometry" />
        </mxCell>
        <mxCell id="xq-trUuBfw3_hCVQ8VGQ-9" value="Nome do produto:" style="text;html=1;align=center;verticalAlign=middle;whiteSpace=wrap;rounded=0;" parent="1" vertex="1">
          <mxGeometry x="95" y="200" width="110" height="30" as="geometry" />
        </mxCell>
        <mxCell id="xq-trUuBfw3_hCVQ8VGQ-10" value="Fornecedor:" style="text;html=1;align=center;verticalAlign=middle;whiteSpace=wrap;rounded=0;" parent="1" vertex="1">
          <mxGeometry x="375" y="200" width="60" height="30" as="geometry" />
        </mxCell>
        <mxCell id="xq-trUuBfw3_hCVQ8VGQ-11" value="Código do sistema:" style="text;html=1;align=center;verticalAlign=middle;whiteSpace=wrap;rounded=0;" parent="1" vertex="1">
          <mxGeometry x="221.5" y="200" width="125" height="30" as="geometry" />
        </mxCell>
        <mxCell id="xq-trUuBfw3_hCVQ8VGQ-12" value="" style="shape=ext;double=1;rounded=1;whiteSpace=wrap;html=1;" parent="1" vertex="1">
          <mxGeometry x="95" y="310" width="110" height="30" as="geometry" />
        </mxCell>
        <mxCell id="xq-trUuBfw3_hCVQ8VGQ-13" value="" style="shape=ext;double=1;rounded=1;whiteSpace=wrap;html=1;" parent="1" vertex="1">
          <mxGeometry x="229" y="310" width="110" height="30" as="geometry" />
        </mxCell>
        <mxCell id="xq-trUuBfw3_hCVQ8VGQ-14" value="" style="shape=ext;double=1;rounded=1;whiteSpace=wrap;html=1;" parent="1" vertex="1">
          <mxGeometry x="366" y="310" width="110" height="30" as="geometry" />
        </mxCell>
        <mxCell id="xq-trUuBfw3_hCVQ8VGQ-15" value="Preço de custo:" style="text;html=1;align=center;verticalAlign=middle;whiteSpace=wrap;rounded=0;" parent="1" vertex="1">
          <mxGeometry x="95" y="280" width="100" height="30" as="geometry" />
        </mxCell>
        <mxCell id="xq-trUuBfw3_hCVQ8VGQ-16" value="Código do produto:" style="text;html=1;align=center;verticalAlign=middle;whiteSpace=wrap;rounded=0;" parent="1" vertex="1">
          <mxGeometry x="229" y="280" width="106" height="30" as="geometry" />
        </mxCell>
        <mxCell id="xq-trUuBfw3_hCVQ8VGQ-17" value="Marca:" style="text;html=1;align=center;verticalAlign=middle;whiteSpace=wrap;rounded=0;" parent="1" vertex="1">
          <mxGeometry x="366" y="280" width="60" height="30" as="geometry" />
        </mxCell>
        <mxCell id="xq-trUuBfw3_hCVQ8VGQ-18" value="" style="shape=ext;double=1;rounded=1;whiteSpace=wrap;html=1;" parent="1" vertex="1">
          <mxGeometry x="96" y="380" width="150" height="30" as="geometry" />
        </mxCell>
        <mxCell id="xq-trUuBfw3_hCVQ8VGQ-20" value="" style="shape=ext;double=1;rounded=1;whiteSpace=wrap;html=1;" parent="1" vertex="1">
          <mxGeometry x="291.5" y="380" width="110" height="30" as="geometry" />
        </mxCell>
        <mxCell id="xq-trUuBfw3_hCVQ8VGQ-21" value="Código do Fornecedor:" style="text;html=1;align=center;verticalAlign=middle;whiteSpace=wrap;rounded=0;" parent="1" vertex="1">
          <mxGeometry x="95" y="350" width="140" height="30" as="geometry" />
        </mxCell>
        <mxCell id="xq-trUuBfw3_hCVQ8VGQ-23" value="Preço de custo:" style="text;html=1;align=center;verticalAlign=middle;whiteSpace=wrap;rounded=0;" parent="1" vertex="1">
          <mxGeometry x="291.5" y="350" width="98.5" height="30" as="geometry" />
        </mxCell>
        <mxCell id="xq-trUuBfw3_hCVQ8VGQ-24" value="" style="shape=ext;double=1;rounded=1;whiteSpace=wrap;html=1;" parent="1" vertex="1">
          <mxGeometry x="96" y="450" width="380" height="30" as="geometry" />
        </mxCell>
        <mxCell id="xq-trUuBfw3_hCVQ8VGQ-25" value="Email:" style="text;html=1;align=center;verticalAlign=middle;whiteSpace=wrap;rounded=0;" parent="1" vertex="1">
          <mxGeometry x="95" y="420" width="60" height="30" as="geometry" />
        </mxCell>
        <mxCell id="xq-trUuBfw3_hCVQ8VGQ-26" value="" style="shape=ext;double=1;rounded=1;whiteSpace=wrap;html=1;" parent="1" vertex="1">
          <mxGeometry x="96" y="520" width="129" height="30" as="geometry" />
        </mxCell>
        <mxCell id="xq-trUuBfw3_hCVQ8VGQ-27" value="Unidade:" style="text;html=1;align=center;verticalAlign=middle;whiteSpace=wrap;rounded=0;" parent="1" vertex="1">
          <mxGeometry x="60" y="490" width="130" height="30" as="geometry" />
        </mxCell>
        <mxCell id="xq-trUuBfw3_hCVQ8VGQ-28" value="" style="shape=ext;double=1;rounded=1;whiteSpace=wrap;html=1;" parent="1" vertex="1">
          <mxGeometry x="241" y="520" width="108" height="30" as="geometry" />
        </mxCell>
        <mxCell id="xq-trUuBfw3_hCVQ8VGQ-30" value="" style="shape=ext;double=1;rounded=1;whiteSpace=wrap;html=1;" parent="1" vertex="1">
          <mxGeometry x="385" y="520" width="100" height="30" as="geometry" />
        </mxCell>
        <mxCell id="xq-trUuBfw3_hCVQ8VGQ-31" value="Peso Bruto:" style="text;html=1;align=center;verticalAlign=middle;whiteSpace=wrap;rounded=0;" parent="1" vertex="1">
          <mxGeometry x="375" y="490" width="91" height="30" as="geometry" />
        </mxCell>
        <mxCell id="U6K_3x_uzPvOP20HBHUA-11" value="Peso Líquido (Kg):" style="text;html=1;align=center;verticalAlign=middle;whiteSpace=wrap;rounded=0;" parent="1" vertex="1">
          <mxGeometry x="234" y="490" width="120" height="30" as="geometry" />
        </mxCell>
        <mxCell id="U6K_3x_uzPvOP20HBHUA-12" style="edgeStyle=orthogonalEdgeStyle;rounded=0;orthogonalLoop=1;jettySize=auto;html=1;exitX=0.5;exitY=1;exitDx=0;exitDy=0;" parent="1" source="xq-trUuBfw3_hCVQ8VGQ-28" target="xq-trUuBfw3_hCVQ8VGQ-28" edge="1">
          <mxGeometry relative="1" as="geometry" />
        </mxCell>
        <mxCell id="MmjaTaNKIL7O90dltvNJ-1" value="" style="shape=ext;double=1;rounded=0;whiteSpace=wrap;html=1;fillColor=#dae8fc;strokeColor=#6c8ebf;glass=1;gradientColor=#7ea6e0;" parent="1" vertex="1">
          <mxGeometry x="610" y="220" width="890" height="590" as="geometry" />
        </mxCell>
        <mxCell id="ko4xNXlhMVGLqNfmduBX-1" value="CADASTRAR-SE" style="shape=ext;double=1;rounded=1;whiteSpace=wrap;html=1;shadow=0;fillColor=#66B2FF;strokeColor=#330000;" parent="1" vertex="1">
          <mxGeometry x="1004.5" y="735" width="152" height="30" as="geometry" />
        </mxCell>
        <mxCell id="ko4xNXlhMVGLqNfmduBX-2" value="" style="endArrow=none;html=1;rounded=0;" parent="1" edge="1">
          <mxGeometry width="50" height="50" relative="1" as="geometry">
            <mxPoint x="1000.33" y="780" as="sourcePoint" />
            <mxPoint x="1164.88" y="780" as="targetPoint" />
            <Array as="points">
              <mxPoint x="996.11" y="780" />
            </Array>
          </mxGeometry>
        </mxCell>
        <mxCell id="ko4xNXlhMVGLqNfmduBX-3" value="" style="shape=ext;double=1;rounded=1;whiteSpace=wrap;html=1;" parent="1" vertex="1">
          <mxGeometry x="650" y="360" width="110" height="30" as="geometry" />
        </mxCell>
        <mxCell id="ko4xNXlhMVGLqNfmduBX-4" value="" style="shape=ext;double=1;rounded=1;whiteSpace=wrap;html=1;" parent="1" vertex="1">
          <mxGeometry x="1021" y="360" width="119" height="30" as="geometry" />
        </mxCell>
        <mxCell id="ko4xNXlhMVGLqNfmduBX-5" value="" style="shape=ext;double=1;rounded=1;whiteSpace=wrap;html=1;" parent="1" vertex="1">
          <mxGeometry x="830" y="360" width="126" height="30" as="geometry" />
        </mxCell>
        <mxCell id="ko4xNXlhMVGLqNfmduBX-6" value="" style="shape=ext;double=1;rounded=1;whiteSpace=wrap;html=1;" parent="1" vertex="1">
          <mxGeometry x="650" y="440" width="110" height="30" as="geometry" />
        </mxCell>
        <mxCell id="ko4xNXlhMVGLqNfmduBX-7" value="" style="shape=ext;double=1;rounded=1;whiteSpace=wrap;html=1;" parent="1" vertex="1">
          <mxGeometry x="790" y="440" width="110" height="30" as="geometry" />
        </mxCell>
        <mxCell id="ko4xNXlhMVGLqNfmduBX-8" value="" style="shape=ext;double=1;rounded=1;whiteSpace=wrap;html=1;" parent="1" vertex="1">
          <mxGeometry x="1060" y="440" width="110" height="30" as="geometry" />
        </mxCell>
        <mxCell id="ko4xNXlhMVGLqNfmduBX-9" value="Preço de custo:" style="text;html=1;align=center;verticalAlign=middle;whiteSpace=wrap;rounded=0;" parent="1" vertex="1">
          <mxGeometry x="650" y="410" width="100" height="30" as="geometry" />
        </mxCell>
        <mxCell id="ko4xNXlhMVGLqNfmduBX-10" value="Código do produto:" style="text;html=1;align=center;verticalAlign=middle;whiteSpace=wrap;rounded=0;" parent="1" vertex="1">
          <mxGeometry x="790" y="410" width="106" height="30" as="geometry" />
        </mxCell>
        <mxCell id="ko4xNXlhMVGLqNfmduBX-11" value="Marca:" style="text;html=1;align=center;verticalAlign=middle;whiteSpace=wrap;rounded=0;" parent="1" vertex="1">
          <mxGeometry x="1050.5" y="410" width="60" height="30" as="geometry" />
        </mxCell>
        <mxCell id="ko4xNXlhMVGLqNfmduBX-12" value="" style="shape=ext;double=1;rounded=1;whiteSpace=wrap;html=1;" parent="1" vertex="1">
          <mxGeometry x="650" y="520" width="150" height="30" as="geometry" />
        </mxCell>
        <mxCell id="ko4xNXlhMVGLqNfmduBX-13" value="" style="shape=ext;double=1;rounded=1;whiteSpace=wrap;html=1;" parent="1" vertex="1">
          <mxGeometry x="922.5" y="440" width="110" height="30" as="geometry" />
        </mxCell>
        <mxCell id="ko4xNXlhMVGLqNfmduBX-14" value="Código do Fornecedor:" style="text;html=1;align=center;verticalAlign=middle;whiteSpace=wrap;rounded=0;" parent="1" vertex="1">
          <mxGeometry x="650" y="490" width="140" height="30" as="geometry" />
        </mxCell>
        <mxCell id="ko4xNXlhMVGLqNfmduBX-15" value="Preço de custo:" style="text;html=1;align=center;verticalAlign=middle;whiteSpace=wrap;rounded=0;" parent="1" vertex="1">
          <mxGeometry x="922.5" y="410" width="98.5" height="30" as="geometry" />
        </mxCell>
        <mxCell id="ko4xNXlhMVGLqNfmduBX-16" value="" style="shape=ext;double=1;rounded=1;whiteSpace=wrap;html=1;" parent="1" vertex="1">
          <mxGeometry x="820" y="520" width="380" height="30" as="geometry" />
        </mxCell>
        <mxCell id="ko4xNXlhMVGLqNfmduBX-17" value="Email:" style="text;html=1;align=center;verticalAlign=middle;whiteSpace=wrap;rounded=0;" parent="1" vertex="1">
          <mxGeometry x="813" y="490" width="60" height="30" as="geometry" />
        </mxCell>
        <mxCell id="ko4xNXlhMVGLqNfmduBX-18" value="" style="shape=ext;double=1;rounded=1;whiteSpace=wrap;html=1;" parent="1" vertex="1">
          <mxGeometry x="1220" y="520" width="129" height="30" as="geometry" />
        </mxCell>
        <mxCell id="ko4xNXlhMVGLqNfmduBX-19" value="Unidade:" style="text;html=1;align=center;verticalAlign=middle;whiteSpace=wrap;rounded=0;" parent="1" vertex="1">
          <mxGeometry x="1190" y="490" width="130" height="30" as="geometry" />
        </mxCell>
        <mxCell id="ko4xNXlhMVGLqNfmduBX-20" value="" style="shape=ext;double=1;rounded=1;whiteSpace=wrap;html=1;" parent="1" vertex="1">
          <mxGeometry x="1190" y="440" width="88" height="30" as="geometry" />
        </mxCell>
        <mxCell id="ko4xNXlhMVGLqNfmduBX-21" value="" style="shape=ext;double=1;rounded=1;whiteSpace=wrap;html=1;" parent="1" vertex="1">
          <mxGeometry x="1311" y="440" width="100" height="30" as="geometry" />
        </mxCell>
        <mxCell id="ko4xNXlhMVGLqNfmduBX-22" value="Peso Bruto:" style="text;html=1;align=center;verticalAlign=middle;whiteSpace=wrap;rounded=0;" parent="1" vertex="1">
          <mxGeometry x="1301" y="410" width="91" height="30" as="geometry" />
        </mxCell>
        <mxCell id="ko4xNXlhMVGLqNfmduBX-28" value="Peso Líquido (Kg):" style="text;html=1;align=center;verticalAlign=middle;whiteSpace=wrap;rounded=0;" parent="1" vertex="1">
          <mxGeometry x="1181" y="410" width="120" height="30" as="geometry" />
        </mxCell>
        <mxCell id="ko4xNXlhMVGLqNfmduBX-29" style="edgeStyle=orthogonalEdgeStyle;rounded=0;orthogonalLoop=1;jettySize=auto;html=1;exitX=0.5;exitY=1;exitDx=0;exitDy=0;" parent="1" source="ko4xNXlhMVGLqNfmduBX-20" target="ko4xNXlhMVGLqNfmduBX-20" edge="1">
          <mxGeometry relative="1" as="geometry" />
        </mxCell>
        <mxCell id="ko4xNXlhMVGLqNfmduBX-31" value="Cadastro de Estoque" style="text;strokeColor=none;fillColor=none;html=1;fontSize=24;fontStyle=1;verticalAlign=middle;align=center;" parent="1" vertex="1">
          <mxGeometry x="995" y="260" width="100" height="40" as="geometry" />
        </mxCell>
        <mxCell id="ko4xNXlhMVGLqNfmduBX-43" value="" style="shape=link;html=1;rounded=0;" parent="1" edge="1">
          <mxGeometry width="100" relative="1" as="geometry">
            <mxPoint x="905" y="300" as="sourcePoint" />
            <mxPoint x="1185" y="300" as="targetPoint" />
          </mxGeometry>
        </mxCell>
        <mxCell id="ko4xNXlhMVGLqNfmduBX-44" value="Nome do produto:" style="text;html=1;align=center;verticalAlign=middle;whiteSpace=wrap;rounded=0;" parent="1" vertex="1">
          <mxGeometry x="650" y="330" width="110" height="30" as="geometry" />
        </mxCell>
        <mxCell id="ko4xNXlhMVGLqNfmduBX-45" value="Código do sistema:" style="text;html=1;align=center;verticalAlign=middle;whiteSpace=wrap;rounded=0;" parent="1" vertex="1">
          <mxGeometry x="820" y="330" width="125" height="30" as="geometry" />
        </mxCell>
        <mxCell id="ko4xNXlhMVGLqNfmduBX-46" value="Fornecedor:" style="text;html=1;align=center;verticalAlign=middle;whiteSpace=wrap;rounded=0;" parent="1" vertex="1">
          <mxGeometry x="1025" y="330" width="60" height="30" as="geometry" />
        </mxCell>
      </root>
    </mxGraphModel>
  </diagram>
  <diagram id="enALlYUilS1F46X1ubHu" name="Página-7">
    <mxGraphModel dx="1434" dy="782" grid="1" gridSize="10" guides="1" tooltips="1" connect="1" arrows="1" fold="1" page="1" pageScale="1" pageWidth="827" pageHeight="1169" math="0" shadow="0">
      <root>
        <mxCell id="0" />
        <mxCell id="1" parent="0" />
        <mxCell id="ejOIhYnveobcfMzzgNlc-1" value="" style="shape=ext;double=1;rounded=1;whiteSpace=wrap;html=1;fillColor=#dae8fc;strokeColor=#6c8ebf;shadow=0;glass=1;arcSize=13;gradientColor=#7ea6e0;" parent="1" vertex="1">
          <mxGeometry x="70" y="115" width="450" height="800" as="geometry" />
        </mxCell>
        <mxCell id="ejOIhYnveobcfMzzgNlc-2" value="SALVAR" style="shape=ext;double=1;rounded=1;whiteSpace=wrap;html=1;shadow=0;fillColor=#66B2FF;strokeColor=#330000;" parent="1" vertex="1">
          <mxGeometry x="211" y="725" width="146" height="30" as="geometry" />
        </mxCell>
        <mxCell id="ejOIhYnveobcfMzzgNlc-3" value="" style="shape=link;html=1;rounded=0;" parent="1" edge="1">
          <mxGeometry width="100" relative="1" as="geometry">
            <mxPoint x="150" y="170" as="sourcePoint" />
            <mxPoint x="430" y="170" as="targetPoint" />
          </mxGeometry>
        </mxCell>
        <mxCell id="ejOIhYnveobcfMzzgNlc-4" value="" style="endArrow=none;html=1;rounded=0;" parent="1" edge="1">
          <mxGeometry width="50" height="50" relative="1" as="geometry">
            <mxPoint x="201.99999999999994" y="809" as="sourcePoint" />
            <mxPoint x="366.54999999999995" y="809" as="targetPoint" />
          </mxGeometry>
        </mxCell>
        <mxCell id="ejOIhYnveobcfMzzgNlc-5" value="Matéria Prima" style="text;strokeColor=none;fillColor=none;html=1;fontSize=24;fontStyle=1;verticalAlign=middle;align=center;" parent="1" vertex="1">
          <mxGeometry x="234" y="130" width="100" height="40" as="geometry" />
        </mxCell>
        <mxCell id="ejOIhYnveobcfMzzgNlc-6" value="" style="shape=ext;double=1;rounded=1;whiteSpace=wrap;html=1;" parent="1" vertex="1">
          <mxGeometry x="95" y="230" width="235" height="30" as="geometry" />
        </mxCell>
        <mxCell id="ejOIhYnveobcfMzzgNlc-9" value="Nome:" style="text;html=1;align=center;verticalAlign=middle;whiteSpace=wrap;rounded=0;" parent="1" vertex="1">
          <mxGeometry x="70" y="200" width="110" height="30" as="geometry" />
        </mxCell>
        <mxCell id="ejOIhYnveobcfMzzgNlc-13" value="" style="shape=ext;double=1;rounded=1;whiteSpace=wrap;html=1;" parent="1" vertex="1">
          <mxGeometry x="95" y="310" width="255" height="30" as="geometry" />
        </mxCell>
        <mxCell id="ejOIhYnveobcfMzzgNlc-14" value="" style="shape=ext;double=1;rounded=1;whiteSpace=wrap;html=1;" parent="1" vertex="1">
          <mxGeometry x="366" y="310" width="110" height="30" as="geometry" />
        </mxCell>
        <mxCell id="ejOIhYnveobcfMzzgNlc-15" value="Descrição:" style="text;html=1;align=center;verticalAlign=middle;whiteSpace=wrap;rounded=0;" parent="1" vertex="1">
          <mxGeometry x="80" y="280" width="100" height="30" as="geometry" />
        </mxCell>
        <mxCell id="ejOIhYnveobcfMzzgNlc-16" value="Código do produto:" style="text;html=1;align=center;verticalAlign=middle;whiteSpace=wrap;rounded=0;" parent="1" vertex="1">
          <mxGeometry x="96" y="350" width="106" height="30" as="geometry" />
        </mxCell>
        <mxCell id="ejOIhYnveobcfMzzgNlc-17" value="Marca:" style="text;html=1;align=center;verticalAlign=middle;whiteSpace=wrap;rounded=0;" parent="1" vertex="1">
          <mxGeometry x="366" y="280" width="60" height="30" as="geometry" />
        </mxCell>
        <mxCell id="ejOIhYnveobcfMzzgNlc-18" value="" style="shape=ext;double=1;rounded=1;whiteSpace=wrap;html=1;" parent="1" vertex="1">
          <mxGeometry x="96" y="380" width="150" height="30" as="geometry" />
        </mxCell>
        <mxCell id="ejOIhYnveobcfMzzgNlc-19" value="" style="shape=ext;double=1;rounded=1;whiteSpace=wrap;html=1;" parent="1" vertex="1">
          <mxGeometry x="265" y="380" width="85" height="30" as="geometry" />
        </mxCell>
        <mxCell id="ejOIhYnveobcfMzzgNlc-21" value="Cor:" style="text;html=1;align=center;verticalAlign=middle;whiteSpace=wrap;rounded=0;" parent="1" vertex="1">
          <mxGeometry x="231.5" y="350" width="98.5" height="30" as="geometry" />
        </mxCell>
        <mxCell id="ejOIhYnveobcfMzzgNlc-24" value="" style="shape=ext;double=1;rounded=1;whiteSpace=wrap;html=1;" parent="1" vertex="1">
          <mxGeometry x="103" y="460" width="162" height="30" as="geometry" />
        </mxCell>
        <mxCell id="ejOIhYnveobcfMzzgNlc-25" value="Unidade de medida:" style="text;html=1;align=center;verticalAlign=middle;whiteSpace=wrap;rounded=0;" parent="1" vertex="1">
          <mxGeometry x="95" y="430" width="130" height="30" as="geometry" />
        </mxCell>
        <mxCell id="ejOIhYnveobcfMzzgNlc-27" value="" style="shape=ext;double=1;rounded=1;whiteSpace=wrap;html=1;" parent="1" vertex="1">
          <mxGeometry x="375" y="380" width="100" height="30" as="geometry" />
        </mxCell>
        <mxCell id="ejOIhYnveobcfMzzgNlc-28" value="Tamanho:" style="text;html=1;align=center;verticalAlign=middle;whiteSpace=wrap;rounded=0;" parent="1" vertex="1">
          <mxGeometry x="360" y="350" width="91" height="30" as="geometry" />
        </mxCell>
        <mxCell id="ejOIhYnveobcfMzzgNlc-35" style="edgeStyle=orthogonalEdgeStyle;rounded=0;orthogonalLoop=1;jettySize=auto;html=1;exitX=0.5;exitY=1;exitDx=0;exitDy=0;" parent="1" edge="1">
          <mxGeometry relative="1" as="geometry">
            <mxPoint x="295" y="550" as="sourcePoint" />
            <mxPoint x="295" y="550" as="targetPoint" />
          </mxGeometry>
        </mxCell>
        <mxCell id="24MEJ2CH_FWw4BL4Jl0Z-1" value="" style="shape=ext;double=1;rounded=0;whiteSpace=wrap;html=1;fillColor=#dae8fc;strokeColor=#6c8ebf;glass=1;gradientColor=#7ea6e0;" parent="1" vertex="1">
          <mxGeometry x="610" y="220" width="890" height="590" as="geometry" />
        </mxCell>
        <mxCell id="24MEJ2CH_FWw4BL4Jl0Z-2" value="SALVAR" style="shape=ext;double=1;rounded=1;whiteSpace=wrap;html=1;shadow=0;fillColor=#66B2FF;strokeColor=#330000;" parent="1" vertex="1">
          <mxGeometry x="1004.5" y="690" width="152" height="30" as="geometry" />
        </mxCell>
        <mxCell id="24MEJ2CH_FWw4BL4Jl0Z-3" value="" style="endArrow=none;html=1;rounded=0;" parent="1" edge="1">
          <mxGeometry width="50" height="50" relative="1" as="geometry">
            <mxPoint x="1000.33" y="780" as="sourcePoint" />
            <mxPoint x="1164.88" y="780" as="targetPoint" />
            <Array as="points">
              <mxPoint x="996.11" y="780" />
            </Array>
          </mxGeometry>
        </mxCell>
        <mxCell id="24MEJ2CH_FWw4BL4Jl0Z-4" value="" style="shape=ext;double=1;rounded=1;whiteSpace=wrap;html=1;" parent="1" vertex="1">
          <mxGeometry x="650" y="360" width="280" height="30" as="geometry" />
        </mxCell>
        <mxCell id="24MEJ2CH_FWw4BL4Jl0Z-9" value="" style="shape=ext;double=1;rounded=1;whiteSpace=wrap;html=1;" parent="1" vertex="1">
          <mxGeometry x="860" y="450" width="140" height="30" as="geometry" />
        </mxCell>
        <mxCell id="24MEJ2CH_FWw4BL4Jl0Z-11" value="Código do produto:" style="text;html=1;align=center;verticalAlign=middle;whiteSpace=wrap;rounded=0;" parent="1" vertex="1">
          <mxGeometry x="650" y="420" width="106" height="30" as="geometry" />
        </mxCell>
        <mxCell id="24MEJ2CH_FWw4BL4Jl0Z-12" value="Marca:" style="text;html=1;align=center;verticalAlign=middle;whiteSpace=wrap;rounded=0;" parent="1" vertex="1">
          <mxGeometry x="850" y="420" width="60" height="30" as="geometry" />
        </mxCell>
        <mxCell id="24MEJ2CH_FWw4BL4Jl0Z-13" value="" style="shape=ext;double=1;rounded=1;whiteSpace=wrap;html=1;" parent="1" vertex="1">
          <mxGeometry x="650" y="450" width="180" height="30" as="geometry" />
        </mxCell>
        <mxCell id="24MEJ2CH_FWw4BL4Jl0Z-17" value="" style="shape=ext;double=1;rounded=1;whiteSpace=wrap;html=1;" parent="1" vertex="1">
          <mxGeometry x="650" y="540" width="380" height="30" as="geometry" />
        </mxCell>
        <mxCell id="24MEJ2CH_FWw4BL4Jl0Z-18" value="Descrição:" style="text;html=1;align=center;verticalAlign=middle;whiteSpace=wrap;rounded=0;" parent="1" vertex="1">
          <mxGeometry x="650" y="510" width="60" height="30" as="geometry" />
        </mxCell>
        <mxCell id="24MEJ2CH_FWw4BL4Jl0Z-19" value="" style="shape=ext;double=1;rounded=1;whiteSpace=wrap;html=1;" parent="1" vertex="1">
          <mxGeometry x="1060" y="540" width="160" height="30" as="geometry" />
        </mxCell>
        <mxCell id="24MEJ2CH_FWw4BL4Jl0Z-20" value="Unidade de medida:" style="text;html=1;align=center;verticalAlign=middle;whiteSpace=wrap;rounded=0;" parent="1" vertex="1">
          <mxGeometry x="1050" y="510" width="130" height="30" as="geometry" />
        </mxCell>
        <mxCell id="24MEJ2CH_FWw4BL4Jl0Z-21" value="" style="shape=ext;double=1;rounded=1;whiteSpace=wrap;html=1;" parent="1" vertex="1">
          <mxGeometry x="970" y="360" width="120" height="30" as="geometry" />
        </mxCell>
        <mxCell id="24MEJ2CH_FWw4BL4Jl0Z-22" value="" style="shape=ext;double=1;rounded=1;whiteSpace=wrap;html=1;" parent="1" vertex="1">
          <mxGeometry x="1030.5" y="450" width="100" height="30" as="geometry" />
        </mxCell>
        <mxCell id="24MEJ2CH_FWw4BL4Jl0Z-23" value="Tamanho:" style="text;html=1;align=center;verticalAlign=middle;whiteSpace=wrap;rounded=0;" parent="1" vertex="1">
          <mxGeometry x="1020" y="425" width="91" height="30" as="geometry" />
        </mxCell>
        <mxCell id="24MEJ2CH_FWw4BL4Jl0Z-30" style="edgeStyle=orthogonalEdgeStyle;rounded=0;orthogonalLoop=1;jettySize=auto;html=1;exitX=0.5;exitY=1;exitDx=0;exitDy=0;" parent="1" source="24MEJ2CH_FWw4BL4Jl0Z-21" target="24MEJ2CH_FWw4BL4Jl0Z-21" edge="1">
          <mxGeometry relative="1" as="geometry" />
        </mxCell>
        <mxCell id="24MEJ2CH_FWw4BL4Jl0Z-31" value="Matéria Prima" style="text;strokeColor=none;fillColor=none;html=1;fontSize=24;fontStyle=1;verticalAlign=middle;align=center;" parent="1" vertex="1">
          <mxGeometry x="995" y="260" width="100" height="40" as="geometry" />
        </mxCell>
        <mxCell id="24MEJ2CH_FWw4BL4Jl0Z-32" value="" style="shape=link;html=1;rounded=0;" parent="1" edge="1">
          <mxGeometry width="100" relative="1" as="geometry">
            <mxPoint x="905" y="300" as="sourcePoint" />
            <mxPoint x="1185" y="300" as="targetPoint" />
          </mxGeometry>
        </mxCell>
        <mxCell id="24MEJ2CH_FWw4BL4Jl0Z-33" value="Nome:" style="text;html=1;align=center;verticalAlign=middle;whiteSpace=wrap;rounded=0;" parent="1" vertex="1">
          <mxGeometry x="620" y="330" width="110" height="30" as="geometry" />
        </mxCell>
        <mxCell id="24MEJ2CH_FWw4BL4Jl0Z-36" value="CANCELAR" style="shape=ext;double=1;rounded=1;whiteSpace=wrap;html=1;shadow=0;fillColor=#66B2FF;strokeColor=#330000;" parent="1" vertex="1">
          <mxGeometry x="211" y="765" width="146" height="30" as="geometry" />
        </mxCell>
        <mxCell id="24MEJ2CH_FWw4BL4Jl0Z-40" value="" style="line;strokeWidth=2;direction=south;html=1;" parent="1" vertex="1">
          <mxGeometry x="231.5" y="460" width="10" height="30" as="geometry" />
        </mxCell>
        <mxCell id="24MEJ2CH_FWw4BL4Jl0Z-42" value="CANCELAR" style="shape=ext;double=1;rounded=1;whiteSpace=wrap;html=1;shadow=0;fillColor=#66B2FF;strokeColor=#330000;" parent="1" vertex="1">
          <mxGeometry x="1004.5" y="735" width="152" height="30" as="geometry" />
        </mxCell>
        <mxCell id="24MEJ2CH_FWw4BL4Jl0Z-43" value="Cor:" style="text;html=1;align=center;verticalAlign=middle;whiteSpace=wrap;rounded=0;" parent="1" vertex="1">
          <mxGeometry x="960" y="330" width="60" height="30" as="geometry" />
        </mxCell>
        <mxCell id="24MEJ2CH_FWw4BL4Jl0Z-45" value="" style="line;strokeWidth=2;direction=south;html=1;" parent="1" vertex="1">
          <mxGeometry x="1190" y="540" width="10" height="30" as="geometry" />
        </mxCell>
        <mxCell id="24MEJ2CH_FWw4BL4Jl0Z-46" value="" style="strokeWidth=2;html=1;shape=mxgraph.flowchart.merge_or_storage;whiteSpace=wrap;" parent="1" vertex="1">
          <mxGeometry x="1200" y="551.25" width="10" height="7.5" as="geometry" />
        </mxCell>
        <mxCell id="HtuUAo35Sil6h4_iMVaa-1" value="" style="strokeWidth=2;html=1;shape=mxgraph.flowchart.merge_or_storage;whiteSpace=wrap;" vertex="1" parent="1">
          <mxGeometry x="246" y="472.5" width="10" height="7.5" as="geometry" />
        </mxCell>
      </root>
    </mxGraphModel>
  </diagram>
  <diagram id="SzTMkZSBMFOkF-sgQygX" name="Página-8">
    <mxGraphModel dx="2261" dy="782" grid="1" gridSize="10" guides="1" tooltips="1" connect="1" arrows="1" fold="1" page="1" pageScale="1" pageWidth="827" pageHeight="1169" math="0" shadow="0">
      <root>
        <mxCell id="0" />
        <mxCell id="1" parent="0" />
        <mxCell id="V501Te03ZI4lmzwZqQHa-1" value="" style="shape=ext;double=1;rounded=1;whiteSpace=wrap;html=1;fillColor=#dae8fc;strokeColor=#6c8ebf;shadow=0;glass=1;arcSize=13;gradientColor=#7ea6e0;" vertex="1" parent="1">
          <mxGeometry x="-215" y="120" width="450" height="800" as="geometry" />
        </mxCell>
        <mxCell id="V501Te03ZI4lmzwZqQHa-2" value="SALVAR" style="shape=ext;double=1;rounded=1;whiteSpace=wrap;html=1;shadow=0;fillColor=#66B2FF;strokeColor=#330000;" vertex="1" parent="1">
          <mxGeometry x="-74" y="730" width="146" height="30" as="geometry" />
        </mxCell>
        <mxCell id="V501Te03ZI4lmzwZqQHa-3" value="" style="shape=link;html=1;rounded=0;" edge="1" parent="1">
          <mxGeometry width="100" relative="1" as="geometry">
            <mxPoint x="-135" y="175" as="sourcePoint" />
            <mxPoint x="145" y="175" as="targetPoint" />
          </mxGeometry>
        </mxCell>
        <mxCell id="V501Te03ZI4lmzwZqQHa-4" value="" style="endArrow=none;html=1;rounded=0;" edge="1" parent="1">
          <mxGeometry width="50" height="50" relative="1" as="geometry">
            <mxPoint x="-83.00000000000006" y="814" as="sourcePoint" />
            <mxPoint x="81.54999999999995" y="814" as="targetPoint" />
          </mxGeometry>
        </mxCell>
        <mxCell id="V501Te03ZI4lmzwZqQHa-5" value="Envio corte" style="text;strokeColor=none;fillColor=none;html=1;fontSize=24;fontStyle=1;verticalAlign=middle;align=center;" vertex="1" parent="1">
          <mxGeometry x="-51" y="135" width="100" height="40" as="geometry" />
        </mxCell>
        <mxCell id="V501Te03ZI4lmzwZqQHa-6" value="" style="shape=ext;double=1;rounded=1;whiteSpace=wrap;html=1;" vertex="1" parent="1">
          <mxGeometry x="-190" y="235" width="235" height="30" as="geometry" />
        </mxCell>
        <mxCell id="V501Te03ZI4lmzwZqQHa-7" value="O que?" style="text;html=1;align=center;verticalAlign=middle;whiteSpace=wrap;rounded=0;" vertex="1" parent="1">
          <mxGeometry x="-215" y="205" width="110" height="30" as="geometry" />
        </mxCell>
        <mxCell id="V501Te03ZI4lmzwZqQHa-8" value="" style="shape=ext;double=1;rounded=1;whiteSpace=wrap;html=1;" vertex="1" parent="1">
          <mxGeometry x="-191" y="310" width="255" height="30" as="geometry" />
        </mxCell>
        <mxCell id="V501Te03ZI4lmzwZqQHa-9" value="" style="shape=ext;double=1;rounded=1;whiteSpace=wrap;html=1;" vertex="1" parent="1">
          <mxGeometry x="81" y="315" width="110" height="30" as="geometry" />
        </mxCell>
        <mxCell id="V501Te03ZI4lmzwZqQHa-10" value="Descrição:" style="text;html=1;align=center;verticalAlign=middle;whiteSpace=wrap;rounded=0;" vertex="1" parent="1">
          <mxGeometry x="-205" y="280" width="100" height="30" as="geometry" />
        </mxCell>
        <mxCell id="V501Te03ZI4lmzwZqQHa-11" value="Código do produto:" style="text;html=1;align=center;verticalAlign=middle;whiteSpace=wrap;rounded=0;" vertex="1" parent="1">
          <mxGeometry x="-189" y="355" width="106" height="30" as="geometry" />
        </mxCell>
        <mxCell id="V501Te03ZI4lmzwZqQHa-12" value="Marca:" style="text;html=1;align=center;verticalAlign=middle;whiteSpace=wrap;rounded=0;" vertex="1" parent="1">
          <mxGeometry x="81" y="285" width="60" height="30" as="geometry" />
        </mxCell>
        <mxCell id="V501Te03ZI4lmzwZqQHa-13" value="" style="shape=ext;double=1;rounded=1;whiteSpace=wrap;html=1;" vertex="1" parent="1">
          <mxGeometry x="-189" y="385" width="150" height="30" as="geometry" />
        </mxCell>
        <mxCell id="V501Te03ZI4lmzwZqQHa-14" value="" style="shape=ext;double=1;rounded=1;whiteSpace=wrap;html=1;" vertex="1" parent="1">
          <mxGeometry x="-20" y="385" width="85" height="30" as="geometry" />
        </mxCell>
        <mxCell id="V501Te03ZI4lmzwZqQHa-15" value="Cor:" style="text;html=1;align=center;verticalAlign=middle;whiteSpace=wrap;rounded=0;" vertex="1" parent="1">
          <mxGeometry x="-53.5" y="355" width="98.5" height="30" as="geometry" />
        </mxCell>
        <mxCell id="V501Te03ZI4lmzwZqQHa-16" value="" style="shape=ext;double=1;rounded=1;whiteSpace=wrap;html=1;" vertex="1" parent="1">
          <mxGeometry x="-190" y="460" width="162" height="30" as="geometry" />
        </mxCell>
        <mxCell id="V501Te03ZI4lmzwZqQHa-17" value="Quantidade:" style="text;html=1;align=center;verticalAlign=middle;whiteSpace=wrap;rounded=0;" vertex="1" parent="1">
          <mxGeometry x="-215" y="430" width="130" height="30" as="geometry" />
        </mxCell>
        <mxCell id="V501Te03ZI4lmzwZqQHa-18" value="" style="shape=ext;double=1;rounded=1;whiteSpace=wrap;html=1;" vertex="1" parent="1">
          <mxGeometry x="90" y="385" width="100" height="30" as="geometry" />
        </mxCell>
        <mxCell id="V501Te03ZI4lmzwZqQHa-19" value="Tamanho:" style="text;html=1;align=center;verticalAlign=middle;whiteSpace=wrap;rounded=0;" vertex="1" parent="1">
          <mxGeometry x="75" y="355" width="91" height="30" as="geometry" />
        </mxCell>
        <mxCell id="V501Te03ZI4lmzwZqQHa-20" style="edgeStyle=orthogonalEdgeStyle;rounded=0;orthogonalLoop=1;jettySize=auto;html=1;exitX=0.5;exitY=1;exitDx=0;exitDy=0;" edge="1" parent="1">
          <mxGeometry relative="1" as="geometry">
            <mxPoint x="10" y="555" as="sourcePoint" />
            <mxPoint x="10" y="555" as="targetPoint" />
          </mxGeometry>
        </mxCell>
        <mxCell id="V501Te03ZI4lmzwZqQHa-21" value="CANCELAR" style="shape=ext;double=1;rounded=1;whiteSpace=wrap;html=1;shadow=0;fillColor=#66B2FF;strokeColor=#330000;" vertex="1" parent="1">
          <mxGeometry x="-74" y="770" width="146" height="30" as="geometry" />
        </mxCell>
        <mxCell id="V501Te03ZI4lmzwZqQHa-22" value="" style="line;strokeWidth=2;direction=south;html=1;" vertex="1" parent="1">
          <mxGeometry x="-76" y="460" width="25" height="30" as="geometry" />
        </mxCell>
        <mxCell id="V501Te03ZI4lmzwZqQHa-23" value="" style="strokeWidth=2;html=1;shape=mxgraph.flowchart.merge_or_storage;whiteSpace=wrap;" vertex="1" parent="1">
          <mxGeometry x="-51" y="472.5" width="10" height="5" as="geometry" />
        </mxCell>
      </root>
    </mxGraphModel>
  </diagram>
  <diagram id="EDOU8PfOjzubiAQet0Hv" name="Página-9">
    <mxGraphModel grid="1" page="1" gridSize="10" guides="1" tooltips="1" connect="1" arrows="1" fold="1" pageScale="1" pageWidth="827" pageHeight="1169" math="0" shadow="0">
      <root>
        <mxCell id="0" />
        <mxCell id="1" parent="0" />
      </root>
    </mxGraphModel>
  </diagram>
</mxfile>
